<?xml version="1.0" encoding="UTF-8"?>
<svg version="1.1" xmlns="http://www.w3.org/2000/svg" width="500" height="500">
<path d="M0 0 C3.70378004 1.16417928 4.95126073 2.48713173 7.39453125 5.46875 C11.72194443 10.57231512 16.31023175 15.28318784 21.08203125 19.96875 C22.08314298 20.96763703 23.08360234 21.96718138 24.08203125 22.96875 C27.91467303 21.4630693 29.61979325 19.20043738 32.08203125 15.96875 C34.20703125 13.65625 34.20703125 13.65625 36.08203125 11.96875 C36.74203125 11.96875 37.40203125 11.96875 38.08203125 11.96875 C38.32953125 11.411875 38.57703125 10.855 38.83203125 10.28125 C41.29588569 5.72311929 43.76265269 2.56290283 48.66772461 0.56420898 C54.30697901 -0.82664363 60.24893234 -0.3296828 66.01953125 -0.21875 C67.38475091 -0.20367992 68.7499866 -0.18999561 70.11523438 -0.17773438 C73.43791221 -0.14251164 76.75976306 -0.09325041 80.08203125 -0.03125 C82.05198681 3.90866113 81.53510864 8.67382464 81.08203125 12.96875 C79.0080229 16.59826461 76.96605744 18.44288257 73.08203125 19.96875 C72.08203125 18.96875 72.08203125 18.96875 71.984375 16.68359375 C71.99597656 15.76707031 72.00757813 14.85054687 72.01953125 13.90625 C72.02855469 12.98714844 72.03757812 12.06804687 72.046875 11.12109375 C72.05847656 10.41082031 72.07007813 9.70054687 72.08203125 8.96875 C68.64356378 9.04956582 65.20687813 9.16241152 61.76953125 9.28125 C60.79306641 9.30380859 59.81660156 9.32636719 58.81054688 9.34960938 C57.87275391 9.38505859 56.93496094 9.42050781 55.96875 9.45703125 C54.67263794 9.49630737 54.67263794 9.49630737 53.3503418 9.53637695 C50.61917509 10.05697713 49.69820674 10.72859363 48.08203125 12.96875 C47.70726771 17.09114897 47.44573241 20.63375993 50.08203125 23.96875 C53.42115738 24.52791079 53.42115738 24.52791079 57.26953125 24.46875 C66.33191944 24.78323798 71.35203241 27.38917819 77.6328125 33.98046875 C80.90285676 38.46686371 81.11098392 43.26054275 81.01953125 48.65625 C79.21904154 55.0179803 74.54135845 58.54431067 69.64453125 62.625 C67.49013006 64.59548889 65.54870504 66.5988195 63.58203125 68.75 C62.94571777 69.43070557 62.3094043 70.11141113 61.65380859 70.81274414 C60.37735089 72.1854084 59.121417 73.5775121 57.88916016 74.98999023 C55.17883549 77.86767691 53.36862915 79.76035738 49.37792969 80.40673828 C46.90379653 80.40978846 44.53420173 80.28595394 42.08203125 79.96875 C43.5230303 74.49502697 47.32712338 71.59801002 51.39453125 67.96875 C52.72465748 66.76118632 54.05409809 65.55286697 55.3828125 64.34375 C56.33692017 63.47967529 56.33692017 63.47967529 57.31030273 62.59814453 C59.63891277 60.45660624 61.86835013 58.2283899 64.08203125 55.96875 C64.74847656 55.31132812 65.41492188 54.65390625 66.1015625 53.9765625 C69.18293782 50.74078276 70.91641392 48.7203979 71.89453125 44.28125 C70.77215151 39.70539412 68.83446935 38.70490278 65.08203125 35.96875 C65.08203125 35.30875 65.08203125 34.64875 65.08203125 33.96875 C64.22480469 33.99195313 63.36757812 34.01515625 62.484375 34.0390625 C47.62530434 34.27359124 47.62530434 34.27359124 43.33203125 30.3828125 C39.08203125 25.71961806 39.08203125 25.71961806 39.08203125 21.96875 C38.42203125 22.95875 37.76203125 23.94875 37.08203125 24.96875 C36.09203125 24.96875 35.10203125 24.96875 34.08203125 24.96875 C33.87578125 25.505 33.66953125 26.04125 33.45703125 26.59375 C31.50206181 29.9705154 28.8997943 32.27349839 26.08203125 34.96875 C19.63144745 32.23965686 15.25085487 27.21396805 10.890625 21.93359375 C8.80580854 19.66866356 6.49876519 17.86936034 4.08203125 15.96875 C4.00749503 20.1313112 3.95324871 24.2935118 3.91723633 28.45654297 C3.902213 29.87067437 3.8817882 31.28475968 3.85571289 32.69873047 C3.81904171 34.73937397 3.80224089 36.77939792 3.7890625 38.8203125 C3.76549683 40.65843506 3.76549683 40.65843506 3.74145508 42.53369141 C4.25551582 47.71851912 5.88068261 50.90709306 9.76953125 54.34375 C10.53265625 54.88 11.29578125 55.41625 12.08203125 55.96875 C18.05068742 53.53707527 21.80698621 48.20356827 25.75 43.32421875 C26.18957031 42.87691406 26.62914062 42.42960937 27.08203125 41.96875 C27.74203125 41.96875 28.40203125 41.96875 29.08203125 41.96875 C29.08203125 41.30875 29.08203125 40.64875 29.08203125 39.96875 C29.79230469 39.76378906 30.50257812 39.55882812 31.234375 39.34765625 C32.15347656 39.07824219 33.07257813 38.80882812 34.01953125 38.53125 C34.93605469 38.26441406 35.85257813 37.99757813 36.796875 37.72265625 C39.02228055 37.17848949 39.02228055 37.17848949 40.08203125 35.96875 C46.80203125 36.68875 46.80203125 36.68875 48.08203125 37.96875 C48.34790956 41.02635057 48.51613006 43.17715805 47.01953125 45.90625 C43.95733472 47.58551907 41.38832184 46.65496125 38.08203125 45.96875 C38.08203125 45.30875 38.08203125 44.64875 38.08203125 43.96875 C31.64648251 45.22446683 29.01898614 49.1558918 25.08203125 53.96875 C22.57263816 56.74193373 20.72243437 58.75528229 17.08203125 59.96875 C17.08203125 60.62875 17.08203125 61.28875 17.08203125 61.96875 C17.63890625 62.195625 18.19578125 62.4225 18.76953125 62.65625 C21.72898215 64.33593835 23.74329909 66.51008285 26.08203125 68.96875 C26.70078125 69.46375 27.31953125 69.95875 27.95703125 70.46875 C29.08203125 71.96875 29.08203125 71.96875 28.89453125 74.53125 C28.08203125 76.96875 28.08203125 76.96875 26.08203125 78.96875 C22.08203125 78.96875 22.08203125 78.96875 20.37109375 77.39453125 C19.82195312 76.69714844 19.2728125 75.99976563 18.70703125 75.28125 C16.58569037 72.70663116 14.55858208 70.37321871 11.95703125 68.28125 C4.86184776 62.57425459 4.86184776 62.57425459 3.01953125 58.78125 C1.79484486 56.41352298 0.44175251 56.11285728 -1.91796875 54.96875 C-4.57730913 52.03864346 -5.30312141 50.08425146 -5.39794922 46.15600586 C-5.42742645 45.20499496 -5.45690369 44.25398407 -5.48727417 43.27415466 C-5.50307526 42.25426956 -5.51887634 41.23438446 -5.53515625 40.18359375 C-5.56022247 39.1309584 -5.5852887 38.07832306 -5.6111145 36.99378967 C-5.66005138 34.77066479 -5.70161022 32.547367 -5.73632812 30.32397461 C-5.7928241 26.91497804 -5.8811737 23.50782612 -5.97265625 20.09960938 C-6.01624221 17.94014205 -6.05797204 15.7806363 -6.09765625 13.62109375 C-6.12560272 12.59918442 -6.15354919 11.57727509 -6.18234253 10.5243988 C-6.1929068 9.57654007 -6.20347107 8.62868134 -6.21435547 7.65209961 C-6.22973358 6.81811142 -6.24511169 5.98412323 -6.26095581 5.12486267 C-5.91796875 2.96875 -5.91796875 2.96875 -4.58181763 1.17408752 C-2.91796875 -0.03125 -2.91796875 -0.03125 0 0 Z M41.08203125 40.96875 C41.08203125 41.62875 41.08203125 42.28875 41.08203125 42.96875 C41.74203125 42.96875 42.40203125 42.96875 43.08203125 42.96875 C43.08203125 42.30875 43.08203125 41.64875 43.08203125 40.96875 C42.42203125 40.96875 41.76203125 40.96875 41.08203125 40.96875 Z " fill="#3D7FDC" transform="translate(63.91796875,223.03125)"/>
<path d="M0 0 C2.8163791 0.08520892 4.33095692 0.26803002 6.609375 1.95703125 C8.49574051 4.09042081 10.14676002 6.31412712 11.8125 8.625 C12.69374696 9.77014799 13.57946898 10.91186097 14.46875 12.05078125 C16.94227416 15.22322232 19.38323151 18.41856111 21.8125 21.625 C22.88012607 20.35544868 23.94722899 19.08545442 25.01196289 17.81347656 C25.92607396 16.72302704 26.84327185 15.63515825 27.76342773 14.54980469 C30.51978356 11.27406543 32.97458574 7.9246692 35.375 4.375 C37.26302934 1.8845994 38.1184392 0.79736609 41.171875 0.0390625 C44.40142716 -0.01236349 46.90861648 0.17305824 49.8125 1.625 C50.75747566 4.38374834 50.94245728 6.95536113 50.95776367 9.85522461 C50.96414352 10.67965561 50.97052338 11.50408661 50.97709656 12.35350037 C50.97820938 13.23586868 50.9793222 14.118237 50.98046875 15.02734375 C50.98546135 16.39941734 50.98546135 16.39941734 50.99055481 17.79920959 C50.99561181 19.73161314 50.99796351 21.66402539 50.99780273 23.59643555 C50.99998938 26.54816093 51.01815851 29.49951257 51.03710938 32.45117188 C51.04004354 34.33072789 51.04202818 36.21028568 51.04296875 38.08984375 C51.05015427 38.97018784 51.05733978 39.85053192 51.06474304 40.7575531 C51.04836465 45.16317913 50.88650168 48.61827742 48.8125 52.625 C47.18786158 52.67895478 45.56271459 52.71777195 43.9375 52.75 C42.58011719 52.78480469 42.58011719 52.78480469 41.1953125 52.8203125 C38.8125 52.625 38.8125 52.625 36.8125 50.625 C36.49365234 48.19482422 36.49365234 48.19482422 36.3984375 45.1796875 C36.34042969 43.56513672 36.34042969 43.56513672 36.28125 41.91796875 C36.2503125 40.79003906 36.219375 39.66210938 36.1875 38.5 C36.12949219 36.79650391 36.12949219 36.79650391 36.0703125 35.05859375 C35.97582399 32.24756044 35.89026459 29.43653767 35.8125 26.625 C35.18601563 27.47964844 34.55953125 28.33429688 33.9140625 29.21484375 C33.08875386 30.33088611 32.26322138 31.44676298 31.4375 32.5625 C30.81875 33.40844727 30.81875 33.40844727 30.1875 34.27148438 C27.0390625 38.51171875 27.0390625 38.51171875 24.8125 39.625 C21.94921875 39.94921875 21.94921875 39.94921875 18.8125 39.625 C16.58203125 37.83203125 16.58203125 37.83203125 14.625 35.4375 C13.97144531 34.66019531 13.31789062 33.88289063 12.64453125 33.08203125 C10.85101784 30.67665825 9.33674827 28.20641853 7.8125 25.625 C7.79268066 26.37185059 7.77286133 27.11870117 7.75244141 27.88818359 C7.65741789 31.25915605 7.54764741 34.62948929 7.4375 38 C7.39109375 39.7634375 7.39109375 39.7634375 7.34375 41.5625 C7.28574219 43.24472656 7.28574219 43.24472656 7.2265625 44.9609375 C7.1951416 45.99782715 7.1637207 47.0347168 7.13134766 48.10302734 C6.8125 50.625 6.8125 50.625 4.8125 52.625 C2.71875 52.890625 2.71875 52.890625 0.3125 52.875 C-0.4815625 52.88015625 -1.275625 52.8853125 -2.09375 52.890625 C-4.1875 52.625 -4.1875 52.625 -6.1875 50.625 C-6.44146729 48.57568359 -6.44146729 48.57568359 -6.44628906 46.0234375 C-6.45259338 45.06904785 -6.45889771 44.1146582 -6.46539307 43.13134766 C-6.4613446 42.09800293 -6.45729614 41.0646582 -6.453125 40 C-6.45503845 38.94216309 -6.4569519 37.88432617 -6.45892334 36.79443359 C-6.46028602 34.55501061 -6.45658382 32.31557974 -6.44824219 30.07617188 C-6.43754402 26.63914323 -6.44813488 23.2026373 -6.4609375 19.765625 C-6.45961592 17.59374884 -6.45705356 15.42187301 -6.453125 13.25 C-6.45919769 11.69998291 -6.45919769 11.69998291 -6.46539307 10.11865234 C-6.45908875 9.1642627 -6.45278442 8.20987305 -6.44628906 7.2265625 C-6.44469788 6.38432129 -6.44310669 5.54208008 -6.44146729 4.67431641 C-5.94828457 0.69471949 -3.53562118 0.23124545 0 0 Z " fill="#5F62E4" transform="translate(160.1875,232.375)"/>
<path d="M0 0 C0.7940625 0.00515625 1.588125 0.0103125 2.40625 0.015625 C3.2003125 0.01046875 3.994375 0.0053125 4.8125 0 C6.90625 0.265625 6.90625 0.265625 8.90625 2.265625 C9.2409668 4.69799805 9.2409668 4.69799805 9.35546875 7.77734375 C9.39953857 8.91768066 9.4436084 10.05801758 9.48901367 11.23291016 C9.52357666 12.46058105 9.55813965 13.68825195 9.59375 14.953125 C9.63282471 16.2014209 9.67189941 17.4497168 9.7121582 18.73583984 C9.92685373 26.96531252 9.91500183 35.16459108 9.59375 43.390625 C9.54190552 44.84601685 9.54190552 44.84601685 9.48901367 46.33081055 C9.44494385 47.21937744 9.40087402 48.10794434 9.35546875 49.0234375 C9.31768311 49.7983252 9.27989746 50.57321289 9.2409668 51.37158203 C8.90625 53.265625 8.90625 53.265625 6.90625 55.265625 C4.84765625 55.49609375 4.84765625 55.49609375 2.46875 55.453125 C1.68628906 55.44667969 0.90382813 55.44023437 0.09765625 55.43359375 C-2.09375 55.265625 -2.09375 55.265625 -5.09375 54.265625 C-6.08375 54.760625 -6.08375 54.760625 -7.09375 55.265625 C-12.04857094 55.80922946 -15.96500852 55.82999574 -20.46875 53.578125 C-25.20183946 49.40849857 -28.70026611 45.37994781 -29.31640625 38.9375 C-29.5373096 32.52169841 -28.82543481 28.29245736 -24.39453125 23.3828125 C-21.16777374 20.25114608 -18.42816665 17.92252083 -13.90625 17.203125 C-10.26188511 17.26286869 -8.35258928 17.8303849 -5.09375 19.265625 C-5.04476563 18.06164062 -4.99578125 16.85765625 -4.9453125 15.6171875 C-4.87028657 14.04164302 -4.79473867 12.46612334 -4.71875 10.890625 C-4.67234375 9.69953125 -4.67234375 9.69953125 -4.625 8.484375 C-4.22081875 0.53547701 -4.22081875 0.53547701 0 0 Z M-15.03125 33.015625 C-16.26589059 35.16308141 -16.26589059 35.16308141 -15.96875 37.328125 C-14.91561337 39.6600704 -14.25287869 40.85102344 -12.09375 42.265625 C-8.94453091 42.03279351 -8.94453091 42.03279351 -6.09375 41.265625 C-4.80598847 38.48737044 -4.80598847 38.48737044 -4.09375 35.265625 C-4.92708333 32.765625 -4.92708333 32.765625 -7.09375 31.265625 C-10.66873198 30.66979467 -12.29481887 30.54400979 -15.03125 33.015625 Z " fill="#5F63E8" transform="translate(327.09375,229.734375)"/>
<path d="M0 0 C1.36521966 0.01507008 2.73045535 0.02875439 4.09570312 0.04101562 C7.41838096 0.07623836 10.74023181 0.12549959 14.0625 0.1875 C16.03245556 4.12741113 15.51557739 8.89257464 15.0625 13.1875 C12.98849165 16.81701461 10.94652619 18.66163257 7.0625 20.1875 C6.0625 19.1875 6.0625 19.1875 5.96484375 16.90234375 C5.97644531 15.98582031 5.98804688 15.06929687 6 14.125 C6.00902344 13.20589844 6.01804688 12.28679687 6.02734375 11.33984375 C6.03894531 10.62957031 6.05054688 9.91929687 6.0625 9.1875 C2.62403253 9.26831582 -0.81265312 9.38116152 -4.25 9.5 C-5.22646484 9.52255859 -6.20292969 9.54511719 -7.20898438 9.56835938 C-8.14677734 9.60380859 -9.08457031 9.63925781 -10.05078125 9.67578125 C-11.34689331 9.71505737 -11.34689331 9.71505737 -12.66918945 9.75512695 C-15.40035616 10.27572713 -16.32132451 10.94734363 -17.9375 13.1875 C-18.31226354 17.30989897 -18.57379884 20.85250993 -15.9375 24.1875 C-12.59837387 24.74666079 -12.59837387 24.74666079 -8.75 24.6875 C0.31238819 25.00198798 5.33250116 27.60792819 11.61328125 34.19921875 C14.88332551 38.68561371 15.09145267 43.47929275 15 48.875 C13.19951029 55.2367303 8.5218272 58.76306067 3.625 62.84375 C1.47059881 64.81423889 -0.47082621 66.8175695 -2.4375 68.96875 C-3.07381348 69.64945557 -3.71012695 70.33016113 -4.36572266 71.03149414 C-5.64218036 72.4041584 -6.89811425 73.7962621 -8.13037109 75.20874023 C-10.84069576 78.08642691 -12.6509021 79.97910738 -16.64160156 80.62548828 C-19.11573472 80.62853846 -21.48532952 80.50470394 -23.9375 80.1875 C-22.49650095 74.71377697 -18.69240787 71.81676002 -14.625 68.1875 C-13.29487377 66.97993632 -11.96543316 65.77161697 -10.63671875 64.5625 C-10.00064697 63.9864502 -9.3645752 63.41040039 -8.70922852 62.81689453 C-6.38061848 60.67535624 -4.15118112 58.4471399 -1.9375 56.1875 C-1.27105469 55.53007812 -0.60460937 54.87265625 0.08203125 54.1953125 C3.16340657 50.95953276 4.89688267 48.9391479 5.875 44.5 C4.75262026 39.92414412 2.8149381 38.92365278 -0.9375 36.1875 C-0.9375 35.5275 -0.9375 34.8675 -0.9375 34.1875 C-1.79472656 34.21070313 -2.65195313 34.23390625 -3.53515625 34.2578125 C-18.2163623 34.4895339 -18.2163623 34.4895339 -22.6875 30.70703125 C-25.46030413 27.79943803 -26.85137284 26.06599699 -27.25 22 C-27.146875 21.071875 -27.04375 20.14375 -26.9375 19.1875 C-27.14393199 16.93421588 -27.14393199 16.93421588 -27.9375 15.1875 C-28.9275 14.8575 -29.9175 14.5275 -30.9375 14.1875 C-30.6075 13.5275 -30.2775 12.8675 -29.9375 12.1875 C-29.2775 12.1875 -28.6175 12.1875 -27.9375 12.1875 C-27.69 11.630625 -27.4425 11.07375 -27.1875 10.5 C-24.72364556 5.94186929 -22.25687856 2.78165283 -17.35180664 0.78295898 C-11.71255224 -0.60789363 -5.77059891 -0.1109328 0 0 Z " fill="#8353DD" transform="translate(129.9375,222.8125)"/>
<path d="M0 0 C3.92117624 2.29037281 6.69236469 4.76431643 8.42578125 9.046875 C9.59964381 14.01321661 9.64055246 17.40640199 7.42578125 22.046875 C4.27854517 25.45569954 1.06042466 25.47153547 -3.32421875 25.66601562 C-4.14921875 25.68857422 -4.97421875 25.71113281 -5.82421875 25.734375 C-6.6646875 25.76853516 -7.50515625 25.80269531 -8.37109375 25.83789062 C-10.43834079 25.92011068 -12.50625749 25.98517657 -14.57421875 26.046875 C-9.96300643 29.12101654 -5.58942597 28.23206128 -0.32421875 27.359375 C3.42578125 27.046875 3.42578125 27.046875 5.42578125 28.046875 C6.98039223 31.15609696 6.79133164 33.63507139 6.42578125 37.046875 C4.59462918 39.66280653 3.51609759 40.01676955 0.42578125 41.046875 C-18.37788039 42.24794658 -18.37788039 42.24794658 -24.57421875 37.046875 C-28.97552689 32.98763744 -31.23785713 28.66876883 -31.79296875 22.69140625 C-32.04881926 15.64485683 -30.64241072 11.34066221 -26.88671875 5.359375 C-19.80567998 -1.72166377 -9.47437366 -3.50796233 0 0 Z M-14.94921875 13.984375 C-16.67736412 15.74016629 -16.67736412 15.74016629 -16.57421875 17.046875 C-12.94421875 17.046875 -9.31421875 17.046875 -5.57421875 17.046875 C-5.90421875 15.396875 -6.23421875 13.746875 -6.57421875 12.046875 C-11.14496716 11.63026386 -11.14496716 11.63026386 -14.94921875 13.984375 Z " fill="#E91DCF" transform="translate(408.57421875,246.953125)"/>
<path d="M0 0 C1.19367188 -0.01675781 2.38734375 -0.03351563 3.6171875 -0.05078125 C8.71444852 0.47710881 11.96686817 2.06046559 15.4375 5.8125 C18.26366364 9.9994091 18.46790033 13.34044519 18.125 18.3125 C15.925 22.9125 15.925 22.9125 13.125 24.3125 C13.434375 24.828125 13.74375 25.34375 14.0625 25.875 C15.45354335 29.06621709 15.93559531 31.84008063 16.125 35.3125 C14.35968433 37.9604735 13.19400421 38.2894986 10.125 39.3125 C-7.84888974 40.5320854 -7.84888974 40.5320854 -13.875 35.3125 C-19.07715831 29.65055497 -20.24565497 24.49113391 -20.15625 16.9140625 C-19.57032427 11.49424946 -17.28061297 7.64783232 -13.375 3.9375 C-8.67496116 0.88247475 -5.71881443 0.01844779 0 0 Z M-3.625 14.8125 C-4.3675 15.6375 -5.11 16.4625 -5.875 17.3125 C-0.51409407 17.84923893 -0.51409407 17.84923893 4.125 15.8125 C4.455 15.3175 4.785 14.8225 5.125 14.3125 C4.465 13.6525 3.805 12.9925 3.125 12.3125 C-1.00112615 11.86405147 -1.00112615 11.86405147 -3.625 14.8125 Z M-3.875 25.3125 C-0.39160112 28.59983282 -0.39160112 28.59983282 2.484375 28.16796875 C3.66773438 27.83732422 3.66773438 27.83732422 4.875 27.5 C6.07382813 27.18095703 6.07382813 27.18095703 7.296875 26.85546875 C7.90015625 26.67628906 8.5034375 26.49710937 9.125 26.3125 C9.125 25.9825 9.125 25.6525 9.125 25.3125 C4.835 25.3125 0.545 25.3125 -3.875 25.3125 Z " fill="#5F62E7" transform="translate(233.875,246.6875)"/>
<path d="M0 0 C0.21299999 3.12399989 0.30420188 5.36475491 -1.0625 8.21875 C-3 10 -3 10 -6.35546875 10.171875 C-7.62003906 10.03265625 -8.88460938 9.8934375 -10.1875 9.75 C-11.45980469 9.62109375 -12.73210937 9.4921875 -14.04296875 9.359375 C-15.50669922 9.18148438 -15.50669922 9.18148438 -17 9 C-14.45147522 11.54852478 -12.69966603 11.57441689 -9.1875 12.25 C-2.31288772 13.92532568 -2.31288772 13.92532568 0.25 16.5625 C2.60098278 21.18050189 2.78225344 24.91535264 2 30 C0.40552213 33.74702299 -1.52385756 35.893247 -5 38 C-13.2181922 40.58286041 -21.4183987 39.40712402 -29.13671875 35.97265625 C-31 35 -31 35 -32 34 C-31.62056512 29.90210331 -31.30694043 27.46041065 -29 24 C-24.19748632 23.29719312 -20.37117054 24.7508276 -15.953125 26.44140625 C-13.94451654 27.25389132 -13.94451654 27.25389132 -12 26 C-12.65226562 25.82984375 -13.30453125 25.6596875 -13.9765625 25.484375 C-20.70495817 23.61868416 -26.13434054 22.06931072 -29.9375 15.8125 C-31.21858036 11.21568224 -31.56169716 7.55708351 -30 3 C-22.8324443 -6.02898061 -9.36461405 -4.4068772 0 0 Z " fill="#E31FC9" transform="translate(372,249)"/>
<path d="M0 0 C0.66 0.33 1.32 0.66 2 1 C2.70125 0.67 3.4025 0.34 4.125 0 C7.95270964 -1.33137727 11.15809067 -1.02652194 15 0 C20.40738702 2.70369351 22.45341407 5.71819214 25 11 C26.37240042 15.47761827 26.18401656 19.91907117 26.1875 24.5625 C26.19974609 25.42552734 26.21199219 26.28855469 26.22460938 27.17773438 C26.22654297 28.00724609 26.22847656 28.83675781 26.23046875 29.69140625 C26.23457764 30.44623291 26.23868652 31.20105957 26.24291992 31.97875977 C26 34 26 34 24 37 C21.6171875 37.29296875 21.6171875 37.29296875 18.875 37.1875 C17.96492188 37.16042969 17.05484375 37.13335937 16.1171875 37.10546875 C15.41851562 37.07066406 14.71984375 37.03585937 14 37 C12.38441178 34.13444179 11.73418754 31.98747846 11.62109375 28.70703125 C11.56985352 27.5149707 11.56985352 27.5149707 11.51757812 26.29882812 C11.49115234 25.47833984 11.46472656 24.65785156 11.4375 23.8125 C11.729374 18.48586969 11.729374 18.48586969 10 14 C7.32941149 13.85884839 4.67567762 13.95752893 2 14 C1.98018066 14.62567871 1.96036133 15.25135742 1.93994141 15.89599609 C1.84485774 18.72276519 1.73511254 21.54877815 1.625 24.375 C1.57859375 25.85226562 1.57859375 25.85226562 1.53125 27.359375 C1.47324219 28.77089844 1.47324219 28.77089844 1.4140625 30.2109375 C1.3826416 31.08024902 1.3512207 31.94956055 1.31884766 32.84521484 C1 35 1 35 -1 37 C-3.34765625 37.23046875 -3.34765625 37.23046875 -6.0625 37.1875 C-6.96097656 37.18105469 -7.85945313 37.17460937 -8.78515625 37.16796875 C-11 37 -11 37 -12 36 C-12.08851529 33.40640678 -12.11525945 30.83960309 -12.09765625 28.24609375 C-12.09553383 27.08292381 -12.09553383 27.08292381 -12.09336853 25.89625549 C-12.08775345 23.40996506 -12.07519846 20.9237634 -12.0625 18.4375 C-12.05748694 16.75586067 -12.0529237 15.07421994 -12.04882812 13.39257812 C-12.03777913 9.26168434 -12.02050445 5.13085724 -12 1 C-7.43979035 -1.43603995 -5.06712136 -0.8990054 0 0 Z " fill="#5F62E3" transform="translate(268,248)"/>
<path d="M0 0 C1.84765625 1.0703125 1.84765625 1.0703125 3.84765625 3.0703125 C3.65234388 6.58593517 3.20691082 9.33289523 1.66015625 12.5078125 C-0.15234375 14.0703125 -0.15234375 14.0703125 -3.21484375 14.3828125 C-6.15234375 14.0703125 -6.15234375 14.0703125 -8.15234375 13.0703125 C-12.28299001 12.69416124 -12.28299001 12.69416124 -16.02734375 14.1953125 C-17.62055365 16.85066233 -17.35448407 19.03820768 -17.15234375 22.0703125 C-15.67403154 22.26443431 -14.19465059 22.45043381 -12.71484375 22.6328125 C-11.89113281 22.73722656 -11.06742187 22.84164063 -10.21875 22.94921875 C-9.53683594 22.98917969 -8.85492188 23.02914063 -8.15234375 23.0703125 C-7.82234375 22.7403125 -7.49234375 22.4103125 -7.15234375 22.0703125 C-4.40234375 21.6328125 -4.40234375 21.6328125 -1.15234375 22.0703125 C2.14177034 25.01398892 3.74083964 26.73510489 4.09765625 31.1953125 C2.33540881 35.24848162 -0.19136766 36.39282595 -4.15234375 38.0703125 C-9.37147436 40.02748648 -14.60295743 39.5215859 -19.71484375 37.5078125 C-25.53796528 34.71549654 -29.73371008 30.06764847 -32.15234375 24.0703125 C-32.93151689 17.72820553 -32.89531024 11.45230332 -29.62890625 5.82421875 C-21.60095003 -3.71163401 -10.80529083 -5.14537659 0 0 Z " fill="#E51FCA" transform="translate(453.15234375,248.9296875)"/>
<path d="M0 0 C6.72 0.72 6.72 0.72 8 2 C8.26587831 5.05760057 8.43409881 7.20840805 6.9375 9.9375 C3.87530347 11.61676907 1.30629059 10.68621125 -2 10 C-2 9.34 -2 8.68 -2 8 C-8.43554874 9.25571683 -11.06304511 13.1871418 -15 18 C-17.50939309 20.77318373 -19.35959688 22.78653229 -23 24 C-23 24.66 -23 25.32 -23 26 C-22.443125 26.226875 -21.88625 26.45375 -21.3125 26.6875 C-18.3530491 28.36718835 -16.33873216 30.54133285 -14 33 C-13.38125 33.495 -12.7625 33.99 -12.125 34.5 C-11 36 -11 36 -11.1875 38.5625 C-12 41 -12 41 -14 43 C-18 43 -18 43 -19.78125 41.390625 C-20.3484375 40.68421875 -20.915625 39.9778125 -21.5 39.25 C-23.35746314 36.98373621 -25.08651383 34.92069565 -27.25 32.9375 C-28.97136878 31.03169886 -29.6668188 29.65577482 -30.625 27.3125 C-31.60822636 23.92312274 -31.60822636 23.92312274 -34 23 C-33.67 21.68 -33.34 20.36 -33 19 C-30.525 19.99 -30.525 19.99 -28 21 C-26.0585604 19.25420935 -24.12184216 17.50362507 -22.1875 15.75 C-21.64029297 15.25886719 -21.09308594 14.76773437 -20.52929688 14.26171875 C-18.19825794 12.14259245 -16.12958356 10.17354428 -14.23828125 7.640625 C-13.82964844 7.09921875 -13.42101562 6.5578125 -13 6 C-12.34 6 -11.68 6 -11 6 C-11 5.34 -11 4.68 -11 4 C-10.28972656 3.79503906 -9.57945313 3.59007812 -8.84765625 3.37890625 C-7.92855469 3.10949219 -7.00945312 2.84007812 -6.0625 2.5625 C-5.14597656 2.29566406 -4.22945312 2.02882813 -3.28515625 1.75390625 C-1.0597507 1.20973949 -1.0597507 1.20973949 0 0 Z M1 5 C1 5.66 1 6.32 1 7 C1.66 7 2.32 7 3 7 C3 6.34 3 5.68 3 5 C2.34 5 1.68 5 1 5 Z " fill="#3750D5" transform="translate(104,259)"/>
<path d="M0 0 C2.68860931 -0.10887507 5.37273158 -0.18770594 8.0625 -0.25 C8.81466797 -0.28351563 9.56683594 -0.31703125 10.34179688 -0.3515625 C17.65016722 -0.47811437 22.47770041 2.12756128 27.8125 7.1875 C32.4754884 12.08101817 33.04862717 17.13099694 32.9375 23.6875 C31.13701029 30.0492303 26.4593272 33.57556067 21.5625 37.65625 C19.40809881 39.62673889 17.46667379 41.6300695 15.5 43.78125 C14.86368652 44.46195557 14.22737305 45.14266113 13.57177734 45.84399414 C12.29531964 47.2166584 11.03938575 48.6087621 9.80712891 50.02124023 C7.09680424 52.89892691 5.2865979 54.79160738 1.29589844 55.43798828 C-1.17823472 55.44103846 -3.54782952 55.31720394 -6 55 C-4.55900095 49.52627697 -0.75490787 46.62926002 3.3125 43 C4.64262623 41.79243632 5.97206684 40.58411697 7.30078125 39.375 C7.93685303 38.7989502 8.5729248 38.22290039 9.22827148 37.62939453 C11.55688152 35.48785624 13.78631888 33.2596399 16 31 C16.66644531 30.34257812 17.33289063 29.68515625 18.01953125 29.0078125 C21.10090657 25.77203276 22.83438267 23.7516479 23.8125 19.3125 C22.69012026 14.73664412 20.7524381 13.73615278 17 11 C17 10.34 17 9.68 17 9 C16.11957031 9.01160156 15.23914063 9.02320313 14.33203125 9.03515625 C12.58986328 9.04869141 12.58986328 9.04869141 10.8125 9.0625 C9.66394531 9.07410156 8.51539062 9.08570313 7.33203125 9.09765625 C4.40699414 9.01192832 1.83683709 8.67849023 -1 8 C-1.33 6.68 -1.66 5.36 -2 4 C-0.68 4.33 0.64 4.66 2 5 C2 5.66 2 6.32 2 7 C2.99 6.67 3.98 6.34 5 6 C6.81054127 5.90601771 8.62452781 5.87008013 10.4375 5.875 C11.85869141 5.87113281 11.85869141 5.87113281 13.30859375 5.8671875 C15.70140459 5.98526525 17.71336153 6.31887365 20 7 C20 7.99 20 8.98 20 10 C20.928125 10.4021875 20.928125 10.4021875 21.875 10.8125 C24 12 24 12 26 15 C26.74168927 19.52775428 26.63147475 23.63444256 24.125 27.5625 C23.42375 28.366875 22.7225 29.17125 22 30 C21.34 30 20.68 30 20 30 C20 30.66 20 31.32 20 32 C18.125 34.125 18.125 34.125 16 36 C15.34 36 14.68 36 14 36 C14 36.66 14 37.32 14 38 C13.34 38 12.68 38 12 38 C11.67 38.99 11.34 39.98 11 41 C9.22265625 42.82421875 9.22265625 42.82421875 7.0625 44.6875 C6.35222656 45.31011719 5.64195313 45.93273437 4.91015625 46.57421875 C3 48 3 48 1 48 C1 48.99 1 49.98 1 51 C5.2799662 50.5244482 7.19418339 48.08639827 10 45 C10.99 43.7315625 10.99 43.7315625 12 42.4375 C14.10443046 39.87272538 16.39735157 38.03991363 19 36 C19.33 35.34 19.66 34.68 20 34 C20.66 34 21.32 34 22 34 C22 33.34 22 32.68 22 32 C22.66 32 23.32 32 24 32 C24.66 30.68 25.32 29.36 26 28 C26.66 28 27.32 28 28 28 C28 27.34 28 26.68 28 26 C28.66 26 29.32 26 30 26 C30.18468014 19.17837729 29.84636224 14.17118431 25.25 8.875 C19.98711426 3.39115341 14.94951601 2.68650739 7.6875 2.375 C6.57665039 2.31699219 6.57665039 2.31699219 5.44335938 2.2578125 C3.62928691 2.16418295 1.81467884 2.08103149 0 2 C0 1.34 0 0.68 0 0 Z " fill="#A034AD" transform="translate(112,248)"/>
<path d="M0 0 C9.57 0 19.14 0 29 0 C30.96995556 3.93991113 30.45307739 8.70507464 30 13 C27.92599165 16.62951461 25.88402619 18.47413257 22 20 C21 19 21 19 20.90234375 16.71484375 C20.91394531 15.79832031 20.92554688 14.88179687 20.9375 13.9375 C20.94652344 13.01839844 20.95554688 12.09929687 20.96484375 11.15234375 C20.97644531 10.44207031 20.98804688 9.73179687 21 9 C17.58302762 9.1391669 14.16651243 9.28749585 10.75 9.4375 C9.78191406 9.47681641 8.81382813 9.51613281 7.81640625 9.55664062 C6.41455078 9.61948242 6.41455078 9.61948242 4.984375 9.68359375 C4.12553711 9.72025146 3.26669922 9.75690918 2.38183594 9.79467773 C0.15039857 9.98703514 -1.84982524 10.38846244 -4 11 C-6 8 -6 8 -6 4 C-3 2 -3 2 0 2 C0 1.34 0 0.68 0 0 Z " fill="#D328C5" transform="translate(115,223)"/>
<path d="M0 0 C14.60941383 -0.92334778 14.60941383 -0.92334778 20.515625 3.58203125 C24.63761737 7.51961869 25.70346805 11.36589298 26 17 C25.32735222 20.1797895 24.68745501 22.22501756 22.52734375 24.66015625 C18.56212745 26.76227247 14.65932935 26.31450432 10.25 26.1875 C8.91775391 26.16719727 8.91775391 26.16719727 7.55859375 26.14648438 C5.37177422 26.11121309 3.18620034 26.06192752 1 26 C0.67 26.66 0.34 27.32 0 28 C-0.33 26.68 -0.66 25.36 -1 24 C-0.34 24 0.32 24 1 24 C0.67 23.2575 0.34 22.515 0 21.75 C-1 19 -1 19 -1 15 C-0.34 15 0.32 15 1 15 C1 15.66 1 16.32 1 17 C4.3 17.33 7.6 17.66 11 18 C10.67 16.68 10.34 15.36 10 14 C7.36 14 4.72 14 2 14 C1.67 13.34 1.34 12.68 1 12 C6.02296004 10.86983399 9.97874074 11.22083908 15 12 C14.67 13.65 14.34 15.3 14 17 C15.65 17.66 17.3 18.32 19 19 C19 19.66 19 20.32 19 21 C20.32 20.67 21.64 20.34 23 20 C23 16.37 23 12.74 23 9 C22.34 9 21.68 9 21 9 C20.67 8.01 20.34 7.02 20 6 C19.01 5.67 18.02 5.34 17 5 C17 4.34 17 3.68 17 3 C11.39 2.34 5.78 1.68 0 1 C0 0.67 0 0.34 0 0 Z " fill="#DF1EC7" transform="translate(392,246)"/>
<path d="M0 0 C6.21019277 1.24203855 8.31935255 2.03912736 12 7 C12.99 7.33 13.98 7.66 15 8 C16.03013277 9.64821244 17.03114628 11.31503702 18 13 C18.66 13.33 19.32 13.66 20 14 C20 14.66 20 15.32 20 16 C21.32 16.66 22.64 17.32 24 18 C24 18.66 24 19.32 24 20 C28.96830587 18.85346788 31.54441978 17.70240738 35 14 C35.99 14 36.98 14 38 14 C38 14.66 38 15.32 38 16 C37.34 16 36.68 16 36 16 C35.6596875 17.1446875 35.6596875 17.1446875 35.3125 18.3125 C33.72223546 21.56875596 32.1316406 22.31373199 29 24 C28.67 24.66 28.34 25.32 28 26 C27.34 26 26.68 26 26 26 C26 25.34 26 24.68 26 24 C25.01 24 24.02 24 23 24 C21.73285325 22.50541666 20.4700041 21.00567749 19.26953125 19.45703125 C17.73446074 17.69524263 16.09785396 16.97400362 14 16 C13.67 15.01 13.34 14.02 13 13 C12.34 12.67 11.68 12.34 11 12 C11 11.34 11 10.68 11 10 C10.34 10 9.68 10 9 10 C8.67 9.34 8.34 8.68 8 8 C6.35 7.67 4.7 7.34 3 7 C2.67 19.54 2.34 32.08 2 45 C1.34 44.67 0.68 44.34 0 44 C0 29.48 0 14.96 0 0 Z " fill="#4C75F2" transform="translate(62,228)"/>
<path d="M0 0 C6.72 0.72 6.72 0.72 8 2 C8.26587831 5.05760057 8.43409881 7.20840805 6.9375 9.9375 C3.87530347 11.61676907 1.30629059 10.68621125 -2 10 C-2 9.34 -2 8.68 -2 8 C-8.4363358 9.2558704 -11.06192664 13.18782157 -15 18 C-16.60866821 19.77376837 -18.22917288 21.38095806 -20 23 C-20.66 23 -21.32 23 -22 23 C-22 22.34 -22 21.68 -22 21 C-22.66 20.67 -23.32 20.34 -24 20 C-16.67924528 10.08805031 -16.67924528 10.08805031 -13 6 C-12.34 6 -11.68 6 -11 6 C-11 5.34 -11 4.68 -11 4 C-10.28972656 3.79503906 -9.57945313 3.59007812 -8.84765625 3.37890625 C-7.92855469 3.10949219 -7.00945312 2.84007812 -6.0625 2.5625 C-5.14597656 2.29566406 -4.22945312 2.02882813 -3.28515625 1.75390625 C-1.0597507 1.20973949 -1.0597507 1.20973949 0 0 Z M1 5 C1 5.66 1 6.32 1 7 C1.66 7 2.32 7 3 7 C3 6.34 3 5.68 3 5 C2.34 5 1.68 5 1 5 Z " fill="#2E6CDD" transform="translate(104,259)"/>
<path d="M0 0 C0.8971875 0.309375 0.8971875 0.309375 1.8125 0.625 C-0.1675 1.285 -2.1475 1.945 -4.1875 2.625 C-3.9709375 3.19347656 -3.754375 3.76195312 -3.53125 4.34765625 C-1.72715747 9.35067212 -1.08436566 13.26201431 -1.1875 18.625 C-0.2900173 21.45878132 -0.2900173 21.45878132 0.8125 23.625 C0.1525 23.625 -0.5075 23.625 -1.1875 23.625 C-1.1875 24.945 -1.1875 26.265 -1.1875 27.625 C-1.8475 27.625 -2.5075 27.625 -3.1875 27.625 C-2.8575 28.615 -2.5275 29.605 -2.1875 30.625 C-6.00184921 29.12650567 -7.99540825 27.06971561 -10.1875 23.625 C-10.375 20.5625 -10.375 20.5625 -10.1875 17.625 C-10.39393199 15.37171588 -10.39393199 15.37171588 -11.1875 13.625 C-12.1775 13.295 -13.1675 12.965 -14.1875 12.625 C-13.8575 11.965 -13.5275 11.305 -13.1875 10.625 C-12.5275 10.625 -11.8675 10.625 -11.1875 10.625 C-10.94 10.068125 -10.6925 9.51125 -10.4375 8.9375 C-8.29977795 4.9827142 -5.10210629 -0.87464679 0 0 Z " fill="#625FE2" transform="translate(113.1875,224.375)"/>
<path d="M0 0 C0.33 2.64 0.66 5.28 1 8 C0.01 8.33 -0.98 8.66 -2 9 C-2.33 7.35 -2.66 5.7 -3 4 C-4.65 4 -6.3 4 -8 4 C-8.33 4.99 -8.66 5.98 -9 7 C-9.99 7.33 -10.98 7.66 -12 8 C-12.73323796 10.01508358 -12.73323796 10.01508358 -13 12 C-14.6254308 11.85904936 -16.25034051 11.71207913 -17.875 11.5625 C-18.77992188 11.48128906 -19.68484375 11.40007812 -20.6171875 11.31640625 C-23 11 -23 11 -25 10 C-25 9.01 -25 8.02 -25 7 C-24.34 7 -23.68 7 -23 7 C-23 5.35 -23 3.7 -23 2 C-18.78753711 0.7770269 -15.32977262 1.23892842 -11.0859375 1.94140625 C-7.21171258 2.05023279 -4.41773688 -0.19634386 0 0 Z " fill="#EA1DCF" transform="translate(453,272)"/>
<path d="M0 0 C8.91 0 17.82 0 27 0 C27 11 27 11 24 15 C23.34 15 22.68 15 22 15 C21.67 12.03 21.34 9.06 21 6 C16.10845663 4.79483714 11.19724878 4.66538566 6.1875 4.4375 C4.86202148 4.37272461 4.86202148 4.37272461 3.50976562 4.30664062 C1.34000377 4.20108464 -0.8299791 4.10008929 -3 4 C-3 3.34 -3 2.68 -3 2 C-2.01 2 -1.02 2 0 2 C0 1.34 0 0.68 0 0 Z " fill="#E520CB" transform="translate(116,225)"/>
<path d="M0 0 C0.66 0 1.32 0 2 0 C1.67 2.31 1.34 4.62 1 7 C0.01 7.33 -0.98 7.66 -2 8 C-2.33 9.65 -2.66 11.3 -3 13 C-3.99 13.33 -4.98 13.66 -6 14 C-6.73323796 16.01508358 -6.73323796 16.01508358 -7 18 C-7.78375 17.95875 -8.5675 17.9175 -9.375 17.875 C-12.16116119 17.71271266 -12.16116119 17.71271266 -14 20 C-16.625 20.125 -16.625 20.125 -19 20 C-18.67 18.68 -18.34 17.36 -18 16 C-19.32 16 -20.64 16 -22 16 C-22.33 13.69 -22.66 11.38 -23 9 C-21.37509046 8.97301811 -19.75005367 8.95361243 -18.125 8.9375 C-17.22007812 8.92589844 -16.31515625 8.91429687 -15.3828125 8.90234375 C-13 9 -13 9 -11 10 C-11 10.66 -11 11.32 -11 12 C-8.52313511 11.61529545 -7.29685486 11.32719638 -5.5859375 9.44140625 C-4.98652344 8.51134766 -4.98652344 8.51134766 -4.375 7.5625 C-2.99029651 5.4501657 -1.79992193 3.79992193 0 2 C0 1.34 0 0.68 0 0 Z " fill="#E91DD1" transform="translate(368,266)"/>
<path d="M0 0 C1.32 0.33 2.64 0.66 4 1 C4 1.66 4 2.32 4 3 C4.99 2.67 5.98 2.34 7 2 C8.81054127 1.90601771 10.62452781 1.87008013 12.4375 1.875 C13.85869141 1.87113281 13.85869141 1.87113281 15.30859375 1.8671875 C17.70140459 1.98526525 19.71336153 2.31887365 22 3 C22 3.99 22 4.98 22 6 C22.61875 6.268125 23.2375 6.53625 23.875 6.8125 C26 8 26 8 28 11 C28.74168927 15.52775428 28.63147475 19.63444256 26.125 23.5625 C25.42375 24.366875 24.7225 25.17125 24 26 C23.34 26 22.68 26 22 26 C22 26.66 22 27.32 22 28 C20.125 30.125 20.125 30.125 18 32 C17.34 32 16.68 32 16 32 C16 32.66 16 33.32 16 34 C15.34 34 14.68 34 14 34 C13.67 34.99 13.34 35.98 13 37 C11.68 36.67 10.36 36.34 9 36 C12.78237555 31.36658996 16.66120389 27.397296 21.265625 23.578125 C24.02060172 21.07134438 24.95321006 19.31583209 25.5 15.625 C24.96565678 11.75101168 24.83814581 11.44329042 22 9.1875 C21.01 8.465625 20.02 7.74375 19 7 C19 6.34 19 5.68 19 5 C18.11957031 5.01160156 17.23914063 5.02320313 16.33203125 5.03515625 C14.58986328 5.04869141 14.58986328 5.04869141 12.8125 5.0625 C11.66394531 5.07410156 10.51539062 5.08570313 9.33203125 5.09765625 C6.40699414 5.01192832 3.83683709 4.67849023 1 4 C0.67 2.68 0.34 1.36 0 0 Z " fill="#B624BB" transform="translate(110,252)"/>
<path d="M0 0 C0.33 0 0.66 0 1 0 C1 14.85 1 29.7 1 45 C1.66 45 2.32 45 3 45 C3.02505615 44.17798096 3.0501123 43.35596191 3.07592773 42.5090332 C3.19212655 38.77670626 3.31474505 35.04461683 3.4375 31.3125 C3.47681641 30.01892578 3.51613281 28.72535156 3.55664062 27.39257812 C3.59853516 26.14541016 3.64042969 24.89824219 3.68359375 23.61328125 C3.72025146 22.46641846 3.75690918 21.31955566 3.79467773 20.13793945 C3.97840298 17.33006722 4.3699382 14.73774186 5 12 C5.33 12 5.66 12 6 12 C6 23.22 6 34.44 6 46 C6.66 46.33 7.32 46.66 8 47 C8 48.32 8 49.64 8 51 C7.34 51 6.68 51 6 51 C6 51.66 6 52.32 6 53 C3.53199953 51.84826645 1.95216435 50.95216435 0 49 C-0.24050903 46.89926147 -0.24050903 46.89926147 -0.22705078 44.27490234 C-0.22682419 42.80360367 -0.22682419 42.80360367 -0.22659302 41.30258179 C-0.21627045 40.24108917 -0.20594788 39.17959656 -0.1953125 38.0859375 C-0.1924826 37.00116119 -0.18965271 35.91638489 -0.18673706 34.79873657 C-0.17551578 31.32404687 -0.15040762 27.84961218 -0.125 24.375 C-0.11497272 22.02344121 -0.10584643 19.6718784 -0.09765625 17.3203125 C-0.07557011 11.54678756 -0.04207345 5.77341199 0 0 Z " fill="#4773EB" transform="translate(60,227)"/>
<path d="M0 0 C2.68860931 -0.10887507 5.37273158 -0.18770594 8.0625 -0.25 C8.81466797 -0.28351563 9.56683594 -0.31703125 10.34179688 -0.3515625 C17.65016722 -0.47811437 22.47770041 2.12756128 27.8125 7.1875 C31.48496279 11.04152275 32.65565206 14.74171385 33 20 C32.77801831 24.51362776 32.39698085 27.84566064 29 31 C26.3125 31.75 26.3125 31.75 24 32 C24.66 30.68 25.32 29.36 26 28 C26.66 28 27.32 28 28 28 C28 27.34 28 26.68 28 26 C28.66 26 29.32 26 30 26 C30.18468014 19.17837729 29.84636224 14.17118431 25.25 8.875 C19.98711426 3.39115341 14.94951601 2.68650739 7.6875 2.375 C6.57665039 2.31699219 6.57665039 2.31699219 5.44335938 2.2578125 C3.62928691 2.16418295 1.81467884 2.08103149 0 2 C0 1.34 0 0.68 0 0 Z " fill="#A739C3" transform="translate(112,248)"/>
<path d="M0 0 C1.19109375 0.00773438 1.19109375 0.00773438 2.40625 0.015625 C3.2003125 0.01046875 3.994375 0.0053125 4.8125 0 C6.90625 0.265625 6.90625 0.265625 8.90625 2.265625 C9.2409668 4.69799805 9.2409668 4.69799805 9.35546875 7.77734375 C9.42133179 9.48809082 9.42133179 9.48809082 9.48852539 11.23339844 C9.52324951 12.4609082 9.55797363 13.68841797 9.59375 14.953125 C9.6342749 16.1999707 9.6747998 17.44681641 9.71655273 18.73144531 C10.02825952 30.27559785 9.65030443 41.74543528 8.90625 53.265625 C8.57625 53.265625 8.24625 53.265625 7.90625 53.265625 C7.90625 36.765625 7.90625 20.265625 7.90625 3.265625 C5.43125 4.750625 5.43125 4.750625 2.90625 6.265625 C2.24625 6.265625 1.58625 6.265625 0.90625 6.265625 C0.90625 5.275625 0.90625 4.285625 0.90625 3.265625 C0.24625 3.265625 -0.41375 3.265625 -1.09375 3.265625 C-1.42375 8.875625 -1.75375 14.485625 -2.09375 20.265625 C-2.75375 20.595625 -3.41375 20.925625 -4.09375 21.265625 C-4.15166844 18.14070249 -4.18731746 15.01591734 -4.21875 11.890625 C-4.23550781 11.00117188 -4.25226563 10.11171875 -4.26953125 9.1953125 C-4.27597656 8.34453125 -4.28242188 7.49375 -4.2890625 6.6171875 C-4.29953613 5.83166504 -4.31000977 5.04614258 -4.32080078 4.23681641 C-3.98307154 1.30474557 -2.89316201 0.36704294 0 0 Z " fill="#5454BD" transform="translate(327.09375,229.734375)"/>
<path d="M0 0 C5 1 5 1 6.8125 3.0625 C7.204375 3.701875 7.59625 4.34125 8 5 C7.35474365 5.25402588 6.7094873 5.50805176 6.04467773 5.76977539 C5.36993408 6.17574951 4.69519043 6.58172363 4 7 C3.39644507 10.11012185 3.1286636 12.85174577 3 16 C2.9469873 17.13969238 2.89397461 18.27938477 2.83935547 19.45361328 C2.67945554 23.32279064 2.55386959 27.1917805 2.4375 31.0625 C2.39420372 32.41863016 2.35058634 33.77475011 2.30664062 35.13085938 C2.2012789 38.42048671 2.09915048 41.71018059 2 45 C1.34 44.67 0.68 44.34 0 44 C0 29.48 0 14.96 0 0 Z " fill="#5668EA" transform="translate(62,228)"/>
<path d="M0 0 C0.33 0.99 0.66 1.98 1 3 C1.66 3.33 2.32 3.66 3 4 C1.71034824 5.37562854 0.37310707 6.70766393 -1 8 C-1.66 8 -2.32 8 -3 8 C-3 8.66 -3 9.32 -3 10 C-3.66 10 -4.32 10 -5 10 C-5.2475 10.61875 -5.495 11.2375 -5.75 11.875 C-7.23740369 14.40358627 -8.43678009 14.71839004 -11 16 C-11.70151152 17.3153341 -12.36525925 18.65117592 -13 20 C-15 22.25 -15 22.25 -17 24 C-17.66 24 -18.32 24 -19 24 C-19.66 25.32 -20.32 26.64 -21 28 C-22.32 27.67 -23.64 27.34 -25 27 C-24.505 25.515 -24.505 25.515 -24 24 C-22.7934375 23.5359375 -22.7934375 23.5359375 -21.5625 23.0625 C-18.45710207 21.77489598 -18.31246068 20.97491087 -17 18 C-15 15.75 -15 15.75 -13 14 C-12.34 14 -11.68 14 -11 14 C-11 13.34 -11 12.68 -11 12 C-10.34 12 -9.68 12 -9 12 C-8.34 10.68 -7.68 9.36 -7 8 C-6.34 8 -5.68 8 -5 8 C-5 7.34 -5 6.68 -5 6 C-4.34 6 -3.68 6 -3 6 C-2.690625 5.195625 -2.38125 4.39125 -2.0625 3.5625 C-1 1 -1 1 0 0 Z " fill="#8550E1" transform="translate(137,272)"/>
<path d="M0 0 C0.66 0 1.32 0 2 0 C2 0.99 2 1.98 2 3 C2.66 3 3.32 3 4 3 C4.33 2.01 4.66 1.02 5 0 C7.64 0.33 10.28 0.66 13 1 C14.28317892 4.84953676 14.06643637 7.94738135 14 12 C12.35 12.33 10.7 12.66 9 13 C9 12.34 9 11.68 9 11 C6.03 10.505 6.03 10.505 3 10 C3.33 8.35 3.66 6.7 4 5 C2.68 4.34 1.36 3.68 0 3 C0 2.01 0 1.02 0 0 Z " fill="#EA1DD0" transform="translate(402,254)"/>
<path d="M0 0 C-0.99 0.495 -0.99 0.495 -2 1 C-1.5359375 1.7734375 -1.5359375 1.7734375 -1.0625 2.5625 C0.32854335 5.75371709 0.81059531 8.52758063 1 12 C-0.76531567 14.6479735 -1.93099579 14.9769986 -5 16 C-7.63772577 16.12248619 -10.23745795 16.18512384 -12.875 16.1875 C-13.58269531 16.19974609 -14.29039062 16.21199219 -15.01953125 16.22460938 C-19.13432929 16.23610322 -22.30160538 15.8346938 -26 14 C-22.25 12.875 -22.25 12.875 -20 14 C-17.95944995 14.07065617 -15.91665743 14.08421976 -13.875 14.0625 C-12.77929688 14.05347656 -11.68359375 14.04445313 -10.5546875 14.03515625 C-9.71164063 14.02355469 -8.86859375 14.01195312 -8 14 C-8 13.67 -8 13.34 -8 13 C-6.35 13 -4.7 13 -3 13 C-3.20625 12.401875 -3.4125 11.80375 -3.625 11.1875 C-4 9 -4 9 -2 6 C-2.99 5.67 -3.98 5.34 -5 5 C-5 4.01 -5 3.02 -5 2 C-5.87011719 2.01740234 -5.87011719 2.01740234 -6.7578125 2.03515625 C-11.2998246 2.08762174 -15.52713569 1.91751063 -20 1 C-20 0.67 -20 0.34 -20 0 C-17.41703983 -0.19522373 -14.83395921 -0.38144403 -12.25 -0.5625 C-11.52039063 -0.61857422 -10.79078125 -0.67464844 -10.0390625 -0.73242188 C-6.45046349 -0.97709908 -3.44972775 -0.99666259 0 0 Z " fill="#5E5FCC" transform="translate(249,270)"/>
<path d="M0 0 C4 1 4 1 7 3 C7 4.32 7 5.64 7 7 C8.32 7 9.64 7 11 7 C11 7.99 11 8.98 11 10 C11.66 10.33 12.32 10.66 13 11 C12.67 12.32 12.34 13.64 12 15 C10.68527053 13.37680325 9.37328338 11.751385 8.0625 10.125 C7.33160156 9.22007812 6.60070312 8.31515625 5.84765625 7.3828125 C4 5 4 5 3 3 C2.98018066 3.74685059 2.96036133 4.49370117 2.93994141 5.26318359 C2.84491789 8.63415605 2.73514741 12.00448929 2.625 15.375 C2.57859375 17.1384375 2.57859375 17.1384375 2.53125 18.9375 C2.47324219 20.61972656 2.47324219 20.61972656 2.4140625 22.3359375 C2.3826416 23.37282715 2.3512207 24.4097168 2.31884766 25.47802734 C2 28 2 28 0 30 C-2.1640625 30.1953125 -2.1640625 30.1953125 -4.625 30.125 C-5.44226563 30.10695313 -6.25953125 30.08890625 -7.1015625 30.0703125 C-7.72804687 30.04710937 -8.35453125 30.02390625 -9 30 C-9.33 29.34 -9.66 28.68 -10 28 C-8.88625 28.020625 -7.7725 28.04125 -6.625 28.0625 C-3.16784079 28.26380718 -3.16784079 28.26380718 -1 27 C-0.67 18.09 -0.34 9.18 0 0 Z " fill="#6061D4" transform="translate(165,255)"/>
<path d="M0 0 C4.95 1.98 4.95 1.98 10 4 C9.67 5.32 9.34 6.64 9 8 C9.556875 8.04125 10.11375 8.0825 10.6875 8.125 C14.2517498 9.47363506 15.816026 11.96670278 18 15 C18 15.99 18 16.98 18 18 C15.83125748 17.49396008 14.00032373 17.00016187 12 16 C12 15.34 12 14.68 12 14 C11.01 13.67 10.02 13.34 9 13 C9 12.34 9 11.68 9 11 C7.68 11 6.36 11 5 11 C4.54625 10.030625 4.0925 9.06125 3.625 8.0625 C2.34213779 4.92920418 2.34213779 4.92920418 0 4 C0 2.68 0 1.36 0 0 Z " fill="#2165F0" transform="translate(70,278)"/>
<path d="M0 0 C-0.875 4.875 -0.875 4.875 -2 6 C-2.33 6.99 -2.66 7.98 -3 9 C-3.99 9 -4.98 9 -6 9 C-6.33 10.32 -6.66 11.64 -7 13 C-8.65 13.33 -10.3 13.66 -12 14 C-12 18.62 -12 23.24 -12 28 C-14.84962044 23.72556933 -14.4962894 20.01634051 -14 15 C-12.48235315 9.2285109 -9.27262792 4.56919547 -4.375 1.1875 C-2 0 -2 0 0 0 Z " fill="#E61ECF" transform="translate(391,247)"/>
<path d="M0 0 C1.32 0.33 2.64 0.66 4 1 C4 2.98 4 4.96 4 7 C3.01 7 2.02 7 1 7 C1 7.66 1 8.32 1 9 C0.34 9 -0.32 9 -1 9 C-1 9.66 -1 10.32 -1 11 C-2.98 11 -4.96 11 -7 11 C-6.34 9.35 -5.68 7.7 -5 6 C-6.65 6 -8.3 6 -10 6 C-9.01 4.35 -8.02 2.7 -7 1 C-4.69 1.33 -2.38 1.66 0 2 C0 1.34 0 0.68 0 0 Z " fill="#EA1DCF" transform="translate(409,276)"/>
<path d="M0 0 C0.33 0 0.66 0 1 0 C1.03738281 0.86882812 1.07476562 1.73765625 1.11328125 2.6328125 C1.42837194 11.29528984 1.42837194 11.29528984 5 19 C7.55139853 21.34325664 7.55139853 21.34325664 10 23 C9.67 23.66 9.34 24.32 9 25 C7.68 24.34 6.36 23.68 5 23 C4.67 23.99 4.34 24.98 4 26 C4.99 26.33 5.98 26.66 7 27 C8.1875 30.0625 8.1875 30.0625 9 33 C7 33 7 33 4.5 30.625 C3.2625 29.325625 3.2625 29.325625 2 28 C1.34 27.34 0.68 26.68 0 26 C0 24.68 0 23.36 0 22 C0.66 22 1.32 22 2 22 C2 20.68 2 19.36 2 18 C1.01 17.67 0.02 17.34 -1 17 C-1.02721176 15.10424749 -1.04649136 13.20838021 -1.0625 11.3125 C-1.07410156 10.25675781 -1.08570312 9.20101563 -1.09765625 8.11328125 C-1.00865425 5.27589738 -0.64939838 2.7561081 0 0 Z " fill="#297FE2" transform="translate(66,256)"/>
<path d="M0 0 C3.51843231 -0.45892595 5.34860502 -0.41140736 8.375 1.5 C8.91125 1.995 9.4475 2.49 10 3 C7.69 3 5.38 3 3 3 C3.33 4.65 3.66 6.3 4 8 C5.32 8.33 6.64 8.66 8 9 C7.67 10.65 7.34 12.3 7 14 C3.04179141 13.43454163 0.3340947 12.19097652 -3 10 C-2.25 3.375 -2.25 3.375 0 0 Z " fill="#D724C1" transform="translate(343,273)"/>
<path d="M0 0 C3.375 0.6875 3.375 0.6875 4.375 1.6875 C4.83375252 6.96315392 4.83375252 6.96315392 3.1875 9.5625 C0.81463721 11.03531139 -0.88413944 10.90973194 -3.625 10.6875 C-6.625 5.0625 -6.625 5.0625 -6.625 1.6875 C-3.625 -0.3125 -3.625 -0.3125 0 0 Z M-2.625 4.6875 C-2.625 5.3475 -2.625 6.0075 -2.625 6.6875 C-1.965 6.6875 -1.305 6.6875 -0.625 6.6875 C-0.625 6.0275 -0.625 5.3675 -0.625 4.6875 C-1.285 4.6875 -1.945 4.6875 -2.625 4.6875 Z " fill="#2E5EE6" transform="translate(107.625,259.3125)"/>
<path d="M0 0 C9.24 0 18.48 0 28 0 C29.96995556 3.93991113 29.45307739 8.70507464 29 13 C26.92599165 16.62951461 24.88402619 18.47413257 21 20 C20 19 20 19 19.90234375 16.71484375 C19.91394531 15.79832031 19.92554688 14.88179687 19.9375 13.9375 C19.94652344 13.01839844 19.95554688 12.09929687 19.96484375 11.15234375 C19.97644531 10.44207031 19.98804688 9.73179687 20 9 C20.33 9 20.66 9 21 9 C21 11.64 21 14.28 21 17 C24.27773504 16.24849977 24.27773504 16.24849977 26 13 C26.45772063 10.26127045 26.45772063 10.26127045 26.625 7.3125 C26.69976562 6.31863281 26.77453125 5.32476562 26.8515625 4.30078125 C26.90054688 3.54152344 26.94953125 2.78226563 27 2 C26.22398437 2.01160156 25.44796875 2.02320313 24.6484375 2.03515625 C16.38527392 2.10418029 8.23291573 1.69121931 0 1 C0 0.67 0 0.34 0 0 Z " fill="#B43BA1" transform="translate(116,223)"/>
<path d="M0 0 C1.23556641 0.01740234 1.23556641 0.01740234 2.49609375 0.03515625 C3.32238281 0.04417969 4.14867187 0.05320313 5 0.0625 C5.63808594 0.07410156 6.27617187 0.08570313 6.93359375 0.09765625 C6.93359375 0.42765625 6.93359375 0.75765625 6.93359375 1.09765625 C4.29359375 1.09765625 1.65359375 1.09765625 -1.06640625 1.09765625 C-1.49953125 2.18046875 -1.49953125 2.18046875 -1.94140625 3.28515625 C-2.31265625 4.21328125 -2.68390625 5.14140625 -3.06640625 6.09765625 C-3.39640625 7.00515625 -3.72640625 7.91265625 -4.06640625 8.84765625 C-5.06640625 11.09765625 -5.06640625 11.09765625 -7.06640625 12.09765625 C-7.49953125 13.33515625 -7.49953125 13.33515625 -7.94140625 14.59765625 C-8.31265625 15.42265625 -8.68390625 16.24765625 -9.06640625 17.09765625 C-10.94140625 17.66015625 -10.94140625 17.66015625 -13.06640625 18.09765625 C-15.29618621 20.07667199 -15.29618621 20.07667199 -17.06640625 22.09765625 C-17.06640625 18.45392637 -16.26139042 17.70640867 -14.0390625 14.90234375 C-13.41193359 14.10441406 -12.78480469 13.30648437 -12.13867188 12.484375 C-11.14383789 11.24107422 -11.14383789 11.24107422 -10.12890625 9.97265625 C-9.46955078 9.13605469 -8.81019531 8.29945313 -8.13085938 7.4375 C-2.34183457 0.11067271 -2.34183457 0.11067271 0 0 Z " fill="#6062D1" transform="translate(201.06640625,232.90234375)"/>
<path d="M0 0 C1.85786623 3.03125543 1.55883265 5.47172859 1.1875 8.9375 C-0.64365207 11.55343153 -1.72218366 11.90739455 -4.8125 12.9375 C-6.14775717 13.01723476 -7.48662083 13.04521338 -8.82421875 13.03515625 C-9.96020508 13.03032227 -9.96020508 13.03032227 -11.11914062 13.02539062 C-11.90482422 13.01701172 -12.69050781 13.00863281 -13.5 13 C-14.29728516 12.99548828 -15.09457031 12.99097656 -15.91601562 12.98632812 C-17.88154257 12.9745585 -19.84703085 12.95662348 -21.8125 12.9375 C-21.8125 12.6075 -21.8125 12.2775 -21.8125 11.9375 C-16.5325 11.9375 -11.2525 11.9375 -5.8125 11.9375 C-5.8125 11.2775 -5.8125 10.6175 -5.8125 9.9375 C-5.1525 9.9375 -4.4925 9.9375 -3.8125 9.9375 C-3.8125 9.2775 -3.8125 8.6175 -3.8125 7.9375 C-2.8225 7.9375 -1.8325 7.9375 -0.8125 7.9375 C-1.46835189 4.32757621 -1.46835189 4.32757621 -2.8125 0.9375 C-3.4725 0.9375 -4.1325 0.9375 -4.8125 0.9375 C-4.8125 1.5975 -4.8125 2.2575 -4.8125 2.9375 C-8.7725 2.6075 -12.7325 2.2775 -16.8125 1.9375 C-16.8125 1.6075 -16.8125 1.2775 -16.8125 0.9375 C-15.25133181 0.59798381 -13.68848662 0.26617456 -12.125 -0.0625 C-11.25488281 -0.248125 -10.38476562 -0.43375 -9.48828125 -0.625 C-2.90294518 -1.70172648 -2.90294518 -1.70172648 0 0 Z " fill="#C828B1" transform="translate(413.8125,275.0625)"/>
<path d="M0 0 C0.8971875 0.309375 0.8971875 0.309375 1.8125 0.625 C-0.1675 1.285 -2.1475 1.945 -4.1875 2.625 C-3.9709375 3.19347656 -3.754375 3.76195312 -3.53125 4.34765625 C-1.72715747 9.35067212 -1.08436566 13.26201431 -1.1875 18.625 C-0.2900173 21.45878132 -0.2900173 21.45878132 0.8125 23.625 C-0.5075 23.295 -1.8275 22.965 -3.1875 22.625 C-5.66813781 13.21497722 -5.66813781 13.21497722 -4.1875 8.625 C-6.4975 9.285 -8.8075 9.945 -11.1875 10.625 C-9.22424474 6.20767566 -5.57216181 -0.95522774 0 0 Z " fill="#7E52C6" transform="translate(113.1875,224.375)"/>
<path d="M0 0 C1.65 0 3.3 0 5 0 C5.33 0.99 5.66 1.98 6 3 C6.66 3 7.32 3 8 3 C8 3.66 8 4.32 8 5 C8.99 5.33 9.98 5.66 11 6 C11 6.99 11 7.98 11 9 C11.66 9 12.32 9 13 9 C14.35278115 10.98689731 15.68568305 12.98745218 17 15 C17.66 15.33 18.32 15.66 19 16 C19 16.66 19 17.32 19 18 C15.66353464 16.5836449 13.84455707 14.91828002 11.5625 12.125 C8.84320551 8.80632505 6.49484593 6.79587674 3 4 C2.67 9.61 2.34 15.22 2 21 C1.67 21 1.34 21 1 21 C0.67 14.07 0.34 7.14 0 0 Z " fill="#419BE1" transform="translate(65,235)"/>
<path d="M0 0 C1.32 0.33 2.64 0.66 4 1 C4 1.66 4 2.32 4 3 C4.99 2.67 5.98 2.34 7 2 C8.81054127 1.90601771 10.62452781 1.87008013 12.4375 1.875 C13.85869141 1.87113281 13.85869141 1.87113281 15.30859375 1.8671875 C17.70140459 1.98526525 19.71336153 2.31887365 22 3 C22 3.99 22 4.98 22 6 C23.32 6.66 24.64 7.32 26 8 C24.1875 8.625 24.1875 8.625 22 9 C21.01 8.34 20.02 7.68 19 7 C19 6.34 19 5.68 19 5 C18.11957031 5.01160156 17.23914063 5.02320313 16.33203125 5.03515625 C14.58986328 5.04869141 14.58986328 5.04869141 12.8125 5.0625 C11.66394531 5.07410156 10.51539062 5.08570313 9.33203125 5.09765625 C6.40699414 5.01192832 3.83683709 4.67849023 1 4 C0.67 2.68 0.34 1.36 0 0 Z " fill="#AC32C3" transform="translate(110,252)"/>
<path d="M0 0 C5.28 0 10.56 0 16 0 C16.66 1.32 17.32 2.64 18 4 C10.08 4.495 10.08 4.495 2 5 C2 4.34 2 3.68 2 3 C1.01 2.67 0.02 2.34 -1 2 C-0.67 1.34 -0.34 0.68 0 0 Z " fill="#7159E6" transform="translate(112,250)"/>
<path d="M0 0 C1.98 0.99 1.98 0.99 4 2 C4 2.66 4 3.32 4 4 C4.99 4.33 5.98 4.66 7 5 C7 5.66 7 6.32 7 7 C7.99 7 8.98 7 10 7 C10 7.66 10 8.32 10 9 C10.66 9 11.32 9 12 9 C12.33 8.01 12.66 7.02 13 6 C14.66666667 5.33333333 16.33333333 4.66666667 18 4 C18.33 3.01 18.66 2.02 19 1 C19.99 1.66 20.98 2.32 22 3 C21.34 3 20.68 3 20 3 C19.690625 3.804375 19.690625 3.804375 19.375 4.625 C17.42003056 8.0017654 14.81776305 10.30474839 12 13 C9.53199953 11.84826645 7.95216435 10.95216435 6 9 C6 8.01 6 7.02 6 6 C5.01 5.67 4.02 5.34 3 5 C1.3125 2.4375 1.3125 2.4375 0 0 Z " fill="#3776D6" transform="translate(78,245)"/>
<path d="M0 0 C14.60941383 -0.92334778 14.60941383 -0.92334778 20.515625 3.58203125 C24.63761737 7.51961869 25.70346805 11.36589298 26 17 C25.3125 20.3125 25.3125 20.3125 24 23 C21.875 24.375 21.875 24.375 20 25 C20 23.68 20 22.36 20 21 C20.99 20.67 21.98 20.34 23 20 C23 16.37 23 12.74 23 9 C22.34 9 21.68 9 21 9 C20.67 8.01 20.34 7.02 20 6 C19.01 5.67 18.02 5.34 17 5 C17 4.34 17 3.68 17 3 C11.39 2.34 5.78 1.68 0 1 C0 0.67 0 0.34 0 0 Z " fill="#C52BAC" transform="translate(392,246)"/>
<path d="M0 0 C2.5 1 2.5 1 4 2 C2.75023244 5.65316671 2.32901247 6.78065836 -1 9 C-3.48046875 9.1953125 -3.48046875 9.1953125 -6.1875 9.125 C-7.08855469 9.10695313 -7.98960937 9.08890625 -8.91796875 9.0703125 C-9.60503906 9.04710937 -10.29210937 9.02390625 -11 9 C-11.33 7.35 -11.66 5.7 -12 4 C-11.34 4 -10.68 4 -10 4 C-10 4.66 -10 5.32 -10 6 C-6.7 6.33 -3.4 6.66 0 7 C-0.33 5.68 -0.66 4.36 -1 3 C-3.64 3 -6.28 3 -9 3 C-9.33 2.34 -9.66 1.68 -10 1 C-6.83013832 -0.58493084 -3.45967739 -0.2940042 0 0 Z " fill="#D61FBA" transform="translate(403,257)"/>
<path d="M0 0 C4.8 3.32307692 4.8 3.32307692 5.8125 6.75 C5.874375 7.4925 5.93625 8.235 6 9 C5.34 9 4.68 9 4 9 C4 8.34 4 7.68 4 7 C3.34 7 2.68 7 2 7 C2.33 8.32 2.66 9.64 3 11 C2.34 11 1.68 11 1 11 C0.67 10.34 0.34 9.68 0 9 C-0.99 10.485 -0.99 10.485 -2 12 C-2.66 12 -3.32 12 -4 12 C-4.33 12.99 -4.66 13.98 -5 15 C-5.99 14.67 -6.98 14.34 -8 14 C-8 13.01 -8 12.02 -8 11 C-7.360625 10.773125 -6.72125 10.54625 -6.0625 10.3125 C-3.72806339 9.14749104 -3.72806339 9.14749104 -3.25 6.375 C-3.1675 5.59125 -3.085 4.8075 -3 4 C-1.68 4.33 -0.36 4.66 1 5 C0.67 3.35 0.34 1.7 0 0 Z " fill="#6162E1" transform="translate(245,249)"/>
<path d="M0 0 C0.33 0 0.66 0 1 0 C1.33 16.17 1.66 32.34 2 49 C2.99 49 3.98 49 5 49 C5.33 50.32 5.66 51.64 6 53 C3.53199953 51.84826645 1.95216435 50.95216435 0 49 C-0.24050903 46.89926147 -0.24050903 46.89926147 -0.22705078 44.27490234 C-0.22682419 42.80360367 -0.22682419 42.80360367 -0.22659302 41.30258179 C-0.21627045 40.24108917 -0.20594788 39.17959656 -0.1953125 38.0859375 C-0.1924826 37.00116119 -0.18965271 35.91638489 -0.18673706 34.79873657 C-0.17551578 31.32404687 -0.15040762 27.84961218 -0.125 24.375 C-0.11497272 22.02344121 -0.10584643 19.6718784 -0.09765625 17.3203125 C-0.07557011 11.54678756 -0.04207345 5.77341199 0 0 Z " fill="#4B97F3" transform="translate(60,227)"/>
<path d="M0 0 C2.0625 1.625 2.0625 1.625 4 4 C4.1875 7 4.1875 7 3 10 C0.86173432 11.86541407 -1.31766798 13.08051064 -4 14 C-6.4375 13.75 -6.4375 13.75 -8 13 C-6.35 12.01 -4.7 11.02 -3 10 C-4.32 9.34 -5.64 8.68 -7 8 C-6.34 8 -5.68 8 -5 8 C-5 6.35 -5 4.7 -5 3 C-4.34 3 -3.68 3 -3 3 C-2.67 4.65 -2.34 6.3 -2 8 C-1.34 7.67 -0.68 7.34 0 7 C0 4.69 0 2.38 0 0 Z " fill="#DD1FC5" transform="translate(453,273)"/>
<path d="M0 0 C0.33 1.32 0.66 2.64 1 4 C7.27 4 13.54 4 20 4 C20.33 4.66 20.66 5.32 21 6 C19.81921875 6.06058594 18.6384375 6.12117187 17.421875 6.18359375 C15.8645723 6.26802582 14.30728121 6.35267249 12.75 6.4375 C11.97269531 6.47681641 11.19539063 6.51613281 10.39453125 6.55664062 C9.64042969 6.59853516 8.88632813 6.64042969 8.109375 6.68359375 C7.07248535 6.73858032 7.07248535 6.73858032 6.01464844 6.79467773 C3.93371671 7.00675524 2.01427578 7.44508677 0 8 C-2 5 -2 5 -2 1 C-1.34 0.67 -0.68 0.34 0 0 Z " fill="#BB2ED3" transform="translate(111,226)"/>
<path d="M0 0 C2.3125 0.1875 2.3125 0.1875 4 1 C3.01 1 2.02 1 1 1 C0.78918149 4.89459074 0.78918149 4.89459074 2 8 C1.34 8 0.68 8 0 8 C0 8.66 0 9.32 0 10 C0.556875 10.226875 1.11375 10.45375 1.6875 10.6875 C6.04097218 13.15838962 9.14637615 16.94485032 12 21 C9 21 9 21 7.3125 19.625 C6 18 6 18 6 16 C4.68 15.34 3.36 14.68 2 14 C2 13.34 2 12.68 2 12 C0.68 11.67 -0.64 11.34 -2 11 C-2 9.68 -2 8.36 -2 7 C-2.99 6.34 -3.98 5.68 -5 5 C-2.75 2.4375 -2.75 2.4375 0 0 Z " fill="#2D5ED9" transform="translate(81,275)"/>
<path d="M0 0 C3.14361863 3.14361863 2.80448867 6.70114402 3.09375 11.00390625 C2.95687381 15.37824118 2.12068064 16.96144254 -1 20 C-3.75 20.875 -3.75 20.875 -6 21 C-5.34 19.68 -4.68 18.36 -4 17 C-3.34 17 -2.68 17 -2 17 C-2 16.34 -2 15.68 -2 15 C-1.34 15 -0.68 15 0 15 C0 10.05 0 5.1 0 0 Z " fill="#AE3AA7" transform="translate(142,259)"/>
<path d="M0 0 C0.99773437 0.02320313 1.99546875 0.04640625 3.0234375 0.0703125 C4.52777344 0.09738281 4.52777344 0.09738281 6.0625 0.125 C6.83335937 0.14820313 7.60421875 0.17140625 8.3984375 0.1953125 C9.86689171 5.66864182 8.83882476 8.31453798 6.3984375 13.1953125 C6.0684375 13.1953125 5.7384375 13.1953125 5.3984375 13.1953125 C5.4396875 12.1021875 5.4809375 11.0090625 5.5234375 9.8828125 C5.71918416 6.10639021 5.71918416 6.10639021 3.3984375 3.1953125 C0.44074573 2.69520726 0.44074573 2.69520726 -2.6015625 3.1953125 C-4.48046684 4.57037349 -4.48046684 4.57037349 -5.6015625 6.1953125 C-4.84252152 2.40010759 -4.24028239 0.31833952 0 0 Z " fill="#605DE6" transform="translate(316.6015625,258.8046875)"/>
<path d="M0 0 C0.99 0.33 1.98 0.66 3 1 C-1.625 5.875 -1.625 5.875 -5 7 C-5 7.99 -5 8.98 -5 10 C-4.01 10.66 -3.02 11.32 -2 12 C-4.31 12.33 -6.62 12.66 -9 13 C-9.28125 10.76953125 -9.28125 10.76953125 -9 8 C-7.03125 5.76171875 -7.03125 5.76171875 -4.5 3.6875 C-3.6646875 2.99011719 -2.829375 2.29273438 -1.96875 1.57421875 C-1.3190625 1.05472656 -0.669375 0.53523438 0 0 Z " fill="#9425B2" transform="translate(118,289)"/>
<path d="M0 0 C2 1 2 1 3.1171875 3.94140625 C4.33083978 8.5881982 4.21934032 13.16605684 4.125 17.9375 C4.11597656 18.81212891 4.10695313 19.68675781 4.09765625 20.58789062 C4.0742957 22.72538064 4.03843247 24.86272786 4 27 C0.90073282 20.92272763 0.93516891 16.08535936 1.0625 9.2890625 C1.00169039 6.08895678 0.60673824 3.13797434 0 0 Z " fill="#6163CB" transform="translate(290,255)"/>
<path d="M0 0 C0.33 0 0.66 0 1 0 C1.05790353 3.29159316 1.09356261 6.58305603 1.125 9.875 C1.14175781 10.81214844 1.15851563 11.74929688 1.17578125 12.71484375 C1.18222656 13.61074219 1.18867188 14.50664062 1.1953125 15.4296875 C1.20578613 16.25710449 1.21625977 17.08452148 1.22705078 17.93701172 C1 20 1 20 -1 22 C-3.1640625 22.1953125 -3.1640625 22.1953125 -5.625 22.125 C-6.44226563 22.10695313 -7.25953125 22.08890625 -8.1015625 22.0703125 C-8.72804687 22.04710937 -9.35453125 22.02390625 -10 22 C-10.33 21.34 -10.66 20.68 -11 20 C-9.88625 20.020625 -8.7725 20.04125 -7.625 20.0625 C-4.16784079 20.26380718 -4.16784079 20.26380718 -2 19 C-1.53205677 17.06643337 -1.53205677 17.06643337 -1.3671875 14.74609375 C-1.28339844 13.89208984 -1.19960937 13.03808594 -1.11328125 12.15820312 C-0.99533203 10.81145508 -0.99533203 10.81145508 -0.875 9.4375 C-0.74544922 8.08495117 -0.74544922 8.08495117 -0.61328125 6.70507812 C-0.40048341 4.47070082 -0.19645533 2.23586385 0 0 Z " fill="#5E60BB" transform="translate(166,263)"/>
<path d="M0 0 C3.04511256 2.28383442 4.76427703 3.58337361 5.40234375 7.41796875 C5.46150749 11.86839706 5.25034787 15.08674447 3 19 C2.24077446 16.20351925 1.78317302 13.50729681 1.5 10.625 C1.1282465 7.05498621 0.63441093 3.53457521 0 0 Z " fill="#CF25B7" transform="translate(369,264)"/>
<path d="M0 0 C0.99 0.33 1.98 0.66 3 1 C2.67 2.98 2.34 4.96 2 7 C0.35 7.33 -1.3 7.66 -3 8 C-2.01 7.01 -1.02 6.02 0 5 C-3.3 4.01 -6.6 3.02 -10 2 C-10 1.67 -10 1.34 -10 1 C-9.36191406 1.01160156 -8.72382813 1.02320313 -8.06640625 1.03515625 C-7.24011719 1.04417969 -6.41382813 1.05320312 -5.5625 1.0625 C-4.32693359 1.07990234 -4.32693359 1.07990234 -3.06640625 1.09765625 C-1.00836062 1.23267348 -1.00836062 1.23267348 0 0 Z " fill="#D622BB" transform="translate(360,270)"/>
<path d="M0 0 C4.25491665 0.47276852 6.22542845 2.92547477 9 6 C9.33 6.66 9.66 7.32 10 8 C9.34 8 8.68 8 8 8 C7.67 8.99 7.34 9.98 7 11 C4.5 8.6875 4.5 8.6875 2 6 C2 5.01 2 4.02 2 3 C0.68 2.67 -0.64 2.34 -2 2 C-1.34 2 -0.68 2 0 2 C0 1.34 0 0.68 0 0 Z " fill="#8452E1" transform="translate(130,252)"/>
<path d="M0 0 C0.99 0.33 1.98 0.66 3 1 C-3.10044843 8.63408072 -3.10044843 8.63408072 -7.7578125 9.53125 C-10.21676247 9.50322778 -12.5683742 9.35876446 -15 9 C-14.34 7.35 -13.68 5.7 -13 4 C-12.67 5.32 -12.34 6.64 -12 8 C-8.535 7.505 -8.535 7.505 -5 7 C-4.731875 6.21625 -4.46375 5.4325 -4.1875 4.625 C-3 2 -3 2 0 0 Z " fill="#9527AB" transform="translate(121,294)"/>
<path d="M0 0 C2.475 0.495 2.475 0.495 5 1 C5 1.66 5 2.32 5 3 C10.28 3 15.56 3 21 3 C16.45976764 6.40517427 14.85892248 6.51422751 9.48046875 6.36328125 C5.71704292 5.81210235 3.85085346 4.48535943 1 2 C0.67 1.34 0.34 0.68 0 0 Z " fill="#5F60C5" transform="translate(303,279)"/>
<path d="M0 0 C0.99 2.31 1.98 4.62 3 7 C2.34 7 1.68 7 1 7 C1 6.01 1 5.02 1 4 C-2.63 4 -6.26 4 -10 4 C-9.34 3.67 -8.68 3.34 -8 3 C-8 2.34 -8 1.68 -8 1 C-5.29120665 -0.35439668 -2.99066732 -0.06501451 0 0 Z " fill="#2A61DA" transform="translate(101,262)"/>
<path d="M0 0 C0.33 0.66 0.66 1.32 1 2 C0.5359375 3.11375 0.5359375 3.11375 0.0625 4.25 C-1.14471096 7.37454601 -1.22156593 9.67651098 -1 13 C-0.67 13.66 -0.34 14.32 0 15 C0.039992 16.99960012 0.04346799 19.00047242 0 21 C0.66 21.33 1.32 21.66 2 22 C1.01 22 0.02 22 -1 22 C-3.23536248 16.69101411 -3.63385006 11.67709186 -3 6 C-1.5 2.375 -1.5 2.375 0 0 Z " fill="#5C5CC4" transform="translate(217,255)"/>
<path d="M0 0 C6.875 0.875 6.875 0.875 8 2 C8.45875252 7.27565392 8.45875252 7.27565392 6.8125 9.875 C4.43963721 11.34781139 2.74086056 11.22223194 0 11 C3.75 9 3.75 9 6 9 C5.67 7.02 5.34 5.04 5 3 C2.69 3 0.38 3 -2 3 C-1.34 2.01 -0.68 1.02 0 0 Z " fill="#4455C3" transform="translate(104,259)"/>
<path d="M0 0 C1.08518111 0.91447846 2.16804738 1.83170407 3.25 2.75 C3.89066406 3.29269531 4.53132813 3.83539063 5.19140625 4.39453125 C7 6 7 6 9.1875 8.4375 C10.0846875 9.2109375 10.0846875 9.2109375 11 10 C13.21858253 9.86358623 13.21858253 9.86358623 15 9 C15 9.99 15 10.98 15 12 C11.29706315 12.33663062 9.60465619 12.47736015 6.625 10.125 C5 8 5 8 5 6 C2.525 5.01 2.525 5.01 0 4 C0 2.68 0 1.36 0 0 Z " fill="#4490DA" transform="translate(77,236)"/>
<path d="M0 0 C4.8 3.32307692 4.8 3.32307692 5.8125 6.75 C5.874375 7.4925 5.93625 8.235 6 9 C3.83125748 8.49396008 2.00032373 8.00016187 0 7 C0 6.34 0 5.68 0 5 C-0.99 4.67 -1.98 4.34 -3 4 C-2.01 3.67 -1.02 3.34 0 3 C0 2.01 0 1.02 0 0 Z " fill="#2960F0" transform="translate(82,287)"/>
<path d="M0 0 C0.5625 1.9375 0.5625 1.9375 1 4 C0.67 4.33 0.34 4.66 0 5 C-0.23653523 7.52596259 -0.42173692 10.03107207 -0.5625 12.5625 C-0.60568359 13.27341797 -0.64886719 13.98433594 -0.69335938 14.71679688 C-0.79971777 16.47761912 -0.90038846 18.2387832 -1 20 C-3.84052632 15.73921052 -3.5215071 12.00344496 -3 7 C-2.22085745 4.45089777 -1.24021525 2.37707923 0 0 Z " fill="#C32CAC" transform="translate(380,255)"/>
<path d="M0 0 C2.97 0 5.94 0 9 0 C9.33 0.99 9.66 1.98 10 3 C5.25 6 5.25 6 3 6 C3 5.01 3 4.02 3 3 C2.01 3 1.02 3 0 3 C0 2.01 0 1.02 0 0 Z " fill="#5D5FD4" transform="translate(325,230)"/>
<path d="M0 0 C0.33 0.66 0.66 1.32 1 2 C1.99 2.33 2.98 2.66 4 3 C4 3.99 4 4.98 4 6 C4.7425 6.2475 5.485 6.495 6.25 6.75 C9.20124062 8.09147301 10.84814974 9.60905526 13 12 C8.07821839 11.56572515 5.54540325 9.30904303 2 6 C0 3 0 3 0 0 Z " fill="#C62CAF" transform="translate(379,275)"/>
<path d="M0 0 C3.46995401 1.15665134 3.88556665 2.18075554 6 5 C6.99 5.33 7.98 5.66 9 6 C9 6.99 9 7.98 9 9 C7.68 9.33 6.36 9.66 5 10 C5 9.34 5 8.68 5 8 C4.34 8 3.68 8 3 8 C2.67 7.34 2.34 6.68 2 6 C-0.01669827 4.86649466 -0.01669827 4.86649466 -2 4 C-1.01 3.34 -0.02 2.68 1 2 C0.67 1.34 0.34 0.68 0 0 Z " fill="#487DF4" transform="translate(68,230)"/>
<path d="M0 0 C1.32 0.66 2.64 1.32 4 2 C-0.69799829 5.85907002 -4.24318779 6.12779144 -10.25 6.0625 C-11.32765625 6.05347656 -12.4053125 6.04445313 -13.515625 6.03515625 C-14.33546875 6.02355469 -15.1553125 6.01195312 -16 6 C-16 5.67 -16 5.34 -16 5 C-15.34773438 4.95101563 -14.69546875 4.90203125 -14.0234375 4.8515625 C-9.06720147 4.42757771 -4.66980549 3.84334427 0 2 C0 1.34 0 0.68 0 0 Z " fill="#C22AAC" transform="translate(367,282)"/>
<path d="M0 0 C0.33 0 0.66 0 1 0 C1.06058594 0.88042969 1.12117188 1.76085937 1.18359375 2.66796875 C1.26738281 3.82941406 1.35117188 4.99085938 1.4375 6.1875 C1.55931641 7.91033203 1.55931641 7.91033203 1.68359375 9.66796875 C1.95403812 12.51598171 2.37521747 15.21210482 3 18 C1.68 17.67 0.36 17.34 -1 17 C-1.02721176 15.10424749 -1.04649136 13.20838021 -1.0625 11.3125 C-1.07410156 10.25675781 -1.08570312 9.20101563 -1.09765625 8.11328125 C-1.00865425 5.27589738 -0.64939838 2.7561081 0 0 Z " fill="#3788DF" transform="translate(66,256)"/>
<path d="M0 0 C0 0.66 0 1.32 0 2 C-0.66 2 -1.32 2 -2 2 C-2.268125 2.78375 -2.53625 3.5675 -2.8125 4.375 C-4 7 -4 7 -7 9 C-9.1875 8.625 -9.1875 8.625 -11 8 C-10.34 8 -9.68 8 -9 8 C-8.7525 7.4225 -8.505 6.845 -8.25 6.25 C-6.15415198 2.47747356 -4.46699396 0 0 0 Z " fill="#536AEA" transform="translate(100,242)"/>
<path d="M0 0 C-1.32 0.99 -2.64 1.98 -4 3 C-4 2.34 -4 1.68 -4 1 C-4.65226563 1.08378906 -5.30453125 1.16757812 -5.9765625 1.25390625 C-10.88249144 1.82554104 -15.13127185 2.15311982 -20 1 C-20 0.67 -20 0.34 -20 0 C-17.41703983 -0.19522373 -14.83395921 -0.38144403 -12.25 -0.5625 C-11.52039063 -0.61857422 -10.79078125 -0.67464844 -10.0390625 -0.73242188 C-6.45046349 -0.97709908 -3.44972775 -0.99666259 0 0 Z " fill="#3A3BD0" transform="translate(249,270)"/>
<path d="M0 0 C0 3 0 3 -2 6 C-5 6.3125 -5 6.3125 -8 6 C-8.66 5.34 -9.32 4.68 -10 4 C-8.35 3.67 -6.7 3.34 -5 3 C-5.33 2.34 -5.66 1.68 -6 1 C-4.7934375 1.0309375 -4.7934375 1.0309375 -3.5625 1.0625 C-1.06645115 1.29633621 -1.06645115 1.29633621 0 0 Z " fill="#C92AB2" transform="translate(455,257)"/>
<path d="M0 0 C1.98 0.99 1.98 0.99 4 2 C4 2.66 4 3.32 4 4 C4.99 4.33 5.98 4.66 7 5 C7 5.66 7 6.32 7 7 C7.99 7 8.98 7 10 7 C10.33 8.32 10.66 9.64 11 11 C9.68 10.67 8.36 10.34 7 10 C6.896875 9.360625 6.79375 8.72125 6.6875 8.0625 C6.3471875 7.0415625 6.3471875 7.0415625 6 6 C5.01 5.67 4.02 5.34 3 5 C1.3125 2.4375 1.3125 2.4375 0 0 Z " fill="#3887EB" transform="translate(78,245)"/>
<path d="M0 0 C0.33 0.66 0.66 1.32 1 2 C2.32 2 3.64 2 5 2 C6.06775224 3.96466413 7.06553465 5.96855359 8 8 C7.67 8.66 7.34 9.32 7 10 C3.45418941 8.1337839 1.3289144 6.8659328 0 3 C0 2.01 0 1.02 0 0 Z " fill="#5477FA" transform="translate(74,237)"/>
<path d="M0 0 C4.74271189 0.45602999 7.28398418 1.12308453 11 4 C14.15118325 4.72045367 14.15118325 4.72045367 17 5 C17 5.33 17 5.66 17 6 C10.89686656 6.51941561 6.29460564 5.11313722 1 2 C0.67 1.34 0.34 0.68 0 0 Z " fill="#C129AA" transform="translate(428,282)"/>
<path d="M0 0 C1.51400391 0.01740234 1.51400391 0.01740234 3.05859375 0.03515625 C4.07050781 0.04417969 5.08242188 0.05320312 6.125 0.0625 C7.29869141 0.07990234 7.29869141 0.07990234 8.49609375 0.09765625 C8.49609375 0.42765625 8.49609375 0.75765625 8.49609375 1.09765625 C5.85609375 1.75765625 3.21609375 2.41765625 0.49609375 3.09765625 C0.27953125 4.52078125 0.27953125 4.52078125 0.05859375 5.97265625 C-0.50390625 9.09765625 -0.50390625 9.09765625 -1.50390625 11.09765625 C-3.07742506 9.52413744 -2.88850774 7.76811134 -3.12890625 5.59765625 C-3.22429687 4.78296875 -3.3196875 3.96828125 -3.41796875 3.12890625 C-3.46050781 2.1234375 -3.46050781 2.1234375 -3.50390625 1.09765625 C-2.50390625 0.09765625 -2.50390625 0.09765625 0 0 Z " fill="#C529AC" transform="translate(436.50390625,259.90234375)"/>
<path d="M0 0 C3.96 1.98 3.96 1.98 8 4 C8 4.66 8 5.32 8 6 C5.6875 6.6875 5.6875 6.6875 3 7 C1.1875 5.8125 1.1875 5.8125 0 4 C0 2.68 0 1.36 0 0 Z " fill="#1969F7" transform="translate(70,278)"/>
<path d="M0 0 C0.33 0 0.66 0 1 0 C1.33 3.63 1.66 7.26 2 11 C2.99 11 3.98 11 5 11 C5.33 12.32 5.66 13.64 6 15 C3.53199953 13.84826645 1.95216435 12.95216435 0 11 C-0.1953125 8.3984375 -0.1953125 8.3984375 -0.125 5.375 C-0.10695312 4.37210937 -0.08890625 3.36921875 -0.0703125 2.3359375 C-0.04710937 1.56507813 -0.02390625 0.79421875 0 0 Z " fill="#3A96E4" transform="translate(60,265)"/>
<path d="M0 0 C0.66 0.33 1.32 0.66 2 1 C2 4.63 2 8.26 2 12 C1.01 12.33 0.02 12.66 -1 13 C-0.67 8.71 -0.34 4.42 0 0 Z " fill="#6B5EE6" transform="translate(139,262)"/>
<path d="M0 0 C0.99773437 0.02320313 1.99546875 0.04640625 3.0234375 0.0703125 C4.52777344 0.09738281 4.52777344 0.09738281 6.0625 0.125 C6.83335938 0.14820313 7.60421875 0.17140625 8.3984375 0.1953125 C7.45871094 0.64003906 7.45871094 0.64003906 6.5 1.09375 C4.33883189 2.09349611 4.33883189 2.09349611 2.7734375 3.8203125 C2.3196875 4.2740625 1.8659375 4.7278125 1.3984375 5.1953125 C0.7384375 5.1953125 0.0784375 5.1953125 -0.6015625 5.1953125 C-0.6015625 4.5353125 -0.6015625 3.8753125 -0.6015625 3.1953125 C-1.9215625 2.8653125 -3.2415625 2.5353125 -4.6015625 2.1953125 C-2.6015625 0.1953125 -2.6015625 0.1953125 0 0 Z " fill="#386ED7" transform="translate(93.6015625,265.8046875)"/>
<path d="M0 0 C0.66 0.33 1.32 0.66 2 1 C1.23883449 2.15227823 0.46567307 3.2966386 -0.3125 4.4375 C-0.74175781 5.07558594 -1.17101562 5.71367187 -1.61328125 6.37109375 C-3 8 -3 8 -6 9 C-5.52797514 4.75177626 -3.03344482 2.80010291 0 0 Z " fill="#3E78D5" transform="translate(98,238)"/>
<path d="M0 0 C1.32 0.33 2.64 0.66 4 1 C4 1.66 4 2.32 4 3 C10.93 3.495 10.93 3.495 18 4 C18 4.33 18 4.66 18 5 C16.10424749 5.02721176 14.20838021 5.04649136 12.3125 5.0625 C10.72888672 5.07990234 10.72888672 5.07990234 9.11328125 5.09765625 C6.27589738 5.00865425 3.7561081 4.64939838 1 4 C0.67 2.68 0.34 1.36 0 0 Z " fill="#8144B2" transform="translate(110,252)"/>
<path d="M0 0 C6.6 0 13.2 0 20 0 C20 0.33 20 0.66 20 1 C18.81921875 1.06058594 17.6384375 1.12117187 16.421875 1.18359375 C14.8645723 1.26802582 13.30728121 1.35267249 11.75 1.4375 C10.97269531 1.47681641 10.19539063 1.51613281 9.39453125 1.55664062 C8.26337891 1.61948242 8.26337891 1.61948242 7.109375 1.68359375 C6.07248535 1.73858032 6.07248535 1.73858032 5.01464844 1.79467773 C2.93371671 2.00675524 1.01427578 2.44508677 -1 3 C-0.67 2.01 -0.34 1.02 0 0 Z " fill="#A444BA" transform="translate(112,231)"/>
<path d="M0 0 C1.4540625 0.0309375 1.4540625 0.0309375 2.9375 0.0625 C2.9375 0.3925 2.9375 0.7225 2.9375 1.0625 C-6.4375 4.1875 -6.4375 4.1875 -11.0625 4.0625 C-11.3925 3.0725 -11.7225 2.0825 -12.0625 1.0625 C-10.763125 1.083125 -9.46375 1.10375 -8.125 1.125 C-6.77084367 1.14649454 -5.41493917 1.13398199 -4.0625 1.0625 C-3.0625 0.0625 -3.0625 0.0625 0 0 Z " fill="#C22BAB" transform="translate(449.0625,270.9375)"/>
<path d="M0 0 C1.670625 0.061875 1.670625 0.061875 3.375 0.125 C3.705 1.445 4.035 2.765 4.375 4.125 C3.715 3.795 3.055 3.465 2.375 3.125 C-1.88946708 2.67420374 -1.88946708 2.67420374 -5.5 4.625 C-5.87125 5.12 -6.2425 5.615 -6.625 6.125 C-5.71577947 1.57889733 -4.95184304 0.17075321 0 0 Z " fill="#6060CA" transform="translate(317.625,258.875)"/>
<path d="M0 0 C0.33 0 0.66 0 1 0 C0.67 4.62 0.34 9.24 0 14 C-1.96811006 10.06377988 -2.24057392 9.3439424 -1.6875 5.3125 C-1.58824219 4.52488281 -1.48898437 3.73726562 -1.38671875 2.92578125 C-1 1 -1 1 0 0 Z " fill="#BF2EB0" transform="translate(343,251)"/>
<path d="M0 0 C-0.33 1.65 -0.66 3.3 -1 5 C-2.11375 4.9071875 -2.11375 4.9071875 -3.25 4.8125 C-6.45383006 5.03094296 -7.64031256 5.90250005 -10 8 C-8.48502075 3.75805811 -4.70198172 0 0 0 Z " fill="#C82EAD" transform="translate(391,247)"/>
<path d="M0 0 C2 0 2 0 4.4375 2.25 C6.47004286 4.4312655 8.28819148 6.56743 10 9 C7 9 7 9 5.3125 7.625 C4 6 4 6 4 4 C2.68 3.34 1.36 2.68 0 2 C0 1.34 0 0.68 0 0 Z " fill="#2B40DF" transform="translate(83,287)"/>
<path d="M0 0 C0.33 0 0.66 0 1 0 C1 2.64 1 5.28 1 8 C1.99 7.67 2.98 7.34 4 7 C4.33 6.34 4.66 5.68 5 5 C5.99 5.33 6.98 5.66 8 6 C5.03 8.475 5.03 8.475 2 11 C1.34 10.67 0.68 10.34 0 10 C0 6.7 0 3.4 0 0 Z " fill="#B43D92" transform="translate(136,232)"/>
<path d="M0 0 C3.375 0.625 3.375 0.625 7 2 C8.4375 5.125 8.4375 5.125 9 8 C7 8 7 8 4.5 5.6875 C2 3 2 3 0 0 Z " fill="#3A78D2" transform="translate(66,281)"/>
<path d="M0 0 C5.41538462 -0.36923077 5.41538462 -0.36923077 8.375 1.5 C8.91125 1.995 9.4475 2.49 10 3 C8.14375 2.938125 8.14375 2.938125 6.25 2.875 C2.98362038 2.86341709 0.7853053 3.1431298 -2 5 C-1.34 3.35 -0.68 1.7 0 0 Z " fill="#B92EA5" transform="translate(343,273)"/>
<path d="M0 0 C2.98704569 0.49784095 4.39324263 1.26216175 7 3 C6.01 3.33 5.02 3.66 4 4 C4.66 4.66 5.32 5.32 6 6 C3.625 5.75 3.625 5.75 1 5 C-0.3125 2.9375 -0.3125 2.9375 -1 1 C-0.67 0.67 -0.34 0.34 0 0 Z " fill="#5C5DC5" transform="translate(228,269)"/>
<path d="M0 0 C3.875 0.875 3.875 0.875 5 2 C5.14115161 4.67058851 5.04247107 7.32432238 5 10 C4.34 10 3.68 10 3 10 C2.87625 8.906875 2.7525 7.81375 2.625 6.6875 C2.24535199 2.92618198 2.24535199 2.92618198 0 0 Z " fill="#B736AC" transform="translate(133,261)"/>
<path d="M0 0 C0.66 0 1.32 0 2 0 C2 1.65 2 3.3 2 5 C2.66 5 3.32 5 4 5 C4 5.66 4 6.32 4 7 C-0.67692308 5.52307692 -0.67692308 5.52307692 -2.3125 2.875 C-2.539375 2.25625 -2.76625 1.6375 -3 1 C-2.01 1.33 -1.02 1.66 0 2 C0 1.34 0 0.68 0 0 Z " fill="#C928B4" transform="translate(346,264)"/>
<path d="M0 0 C1.32 0.33 2.64 0.66 4 1 C4 2.98 4 4.96 4 7 C3.01 7 2.02 7 1 7 C0.67 4.69 0.34 2.38 0 0 Z " fill="#354BE0" transform="translate(106,261)"/>
<path d="M0 0 C0.33 0.99 0.66 1.98 1 3 C1.66 3.33 2.32 3.66 3 4 C2.01 4.66 1.02 5.32 0 6 C-0.57748803 7.96361864 -0.57748803 7.96361864 -0.6875 10.125 C-0.790625 11.40375 -0.89375 12.6825 -1 14 C-1.33 14 -1.66 14 -2 14 C-2.05437607 12.41705218 -2.09296271 10.83355744 -2.125 9.25 C-2.14820313 8.36828125 -2.17140625 7.4865625 -2.1953125 6.578125 C-1.99139502 3.8864142 -1.36551721 2.30095026 0 0 Z " fill="#5C5EC4" transform="translate(300,257)"/>
<path d="M0 0 C0.66 0.33 1.32 0.66 2 1 C1.67 2.32 1.34 3.64 1 5 C-0.65 5.33 -2.3 5.66 -4 6 C-3.6875 4.125 -3.6875 4.125 -3 2 C-2.01 1.34 -1.02 0.68 0 0 Z " fill="#8A49E3" transform="translate(116,294)"/>
<path d="M0 0 C0.99 0.33 1.98 0.66 3 1 C3.33 3.31 3.66 5.62 4 8 C2.68 7.67 1.36 7.34 0 7 C0 4.69 0 2.38 0 0 Z " fill="#5052DA" transform="translate(103,241)"/>
<path d="M0 0 C3.65316671 1.24976756 4.78065836 1.67098753 7 5 C4.69 4.67 2.38 4.34 0 4 C0 2.68 0 1.36 0 0 Z " fill="#6163EC" transform="translate(63,228)"/>
<path d="M0 0 C0 0.66 0 1.32 0 2 C0.99 2.66 1.98 3.32 3 4 C0.69 4.33 -1.62 4.66 -4 5 C-4 3.68 -4 2.36 -4 1 C-2 0 -2 0 0 0 Z " fill="#A21AC9" transform="translate(113,297)"/>
<path d="M0 0 C0 0.99 0 1.98 0 3 C-5.5 6.125 -5.5 6.125 -10 5 C-6.7 3.35 -3.4 1.7 0 0 Z " fill="#BD2DAB" transform="translate(455,281)"/>
<path d="M0 0 C2.02045442 0.60183749 4.02111039 1.27306096 6 2 C6.33 2.66 6.66 3.32 7 4 C6.34 4 5.68 4 5 4 C4.67 4.99 4.34 5.98 4 7 C0 2.25 0 2.25 0 0 Z " fill="#D027BB" transform="translate(423,275)"/>
<path d="M0 0 C0.99 0.33 1.98 0.66 3 1 C2.3125 2.9375 2.3125 2.9375 1 5 C-1.625 5.75 -1.625 5.75 -4 6 C-3.34 4.68 -2.68 3.36 -2 2 C-1.34 2 -0.68 2 0 2 C0 1.34 0 0.68 0 0 Z " fill="#B33CB5" transform="translate(140,274)"/>
<path d="M0 0 C0.99 0.33 1.98 0.66 3 1 C1.7260411 3.03833424 0.38938077 5.03852126 -1 7 C-1.66 7 -2.32 7 -3 7 C-3.33 7.66 -3.66 8.32 -4 9 C-3.46930939 5.17902761 -2.50298434 2.93828597 0 0 Z " fill="#C130BC" transform="translate(135,271)"/>
<path d="M0 0 C0.66 0.33 1.32 0.66 2 1 C1.67 2.32 1.34 3.64 1 5 C-1.31 5.66 -3.62 6.32 -6 7 C-4.02 4.69 -2.04 2.38 0 0 Z " fill="#6062C9" transform="translate(307,249)"/>
<path d="M0 0 C0.99 1.485 0.99 1.485 2 3 C2.99 2.67 3.98 2.34 5 2 C4.1875 4.4375 4.1875 4.4375 3 7 C2.01 7.33 1.02 7.66 0 8 C0 5.36 0 2.72 0 0 Z " fill="#E425BD" transform="translate(138,232)"/>
<path d="M0 0 C4 0 4 0 5.8125 1.25 C6.204375 1.8275 6.59625 2.405 7 3 C6.67 4.32 6.34 5.64 6 7 C4.02 4.69 2.04 2.38 0 0 Z " fill="#3C60D3" transform="translate(75,289)"/>
<path d="M0 0 C0 1.65 0 3.3 0 5 C0.66 5.33 1.32 5.66 2 6 C-0.16874252 5.49396008 -1.99967627 5.00016187 -4 4 C-4 3.01 -4 2.02 -4 1 C-2 0 -2 0 0 0 Z " fill="#1F71E7" transform="translate(70,277)"/>
<path d="M0 0 C2.31 0 4.62 0 7 0 C6.34 1.65 5.68 3.3 5 5 C3.68 4.67 2.36 4.34 1 4 C1.99 3.34 2.98 2.68 4 2 C2.68 1.34 1.36 0.68 0 0 Z " fill="#CB20B3" transform="translate(356,273)"/>
<path d="M0 0 C-1.04874998 2.62187494 -1.64931313 3.79371361 -4.125 5.25 C-4.74375 5.4975 -5.3625 5.745 -6 6 C-6.33 5.34 -6.66 4.68 -7 4 C-6.34 4 -5.68 4 -5 4 C-4.67 3.01 -4.34 2.02 -4 1 C-2 0 -2 0 0 0 Z " fill="#3381D8" transform="translate(94,252)"/>
<path d="M0 0 C4.8 3.32307692 4.8 3.32307692 5.8125 6.75 C5.874375 7.4925 5.93625 8.235 6 9 C5.34 9 4.68 9 4 9 C0 2.25 0 2.25 0 0 Z " fill="#6464BF" transform="translate(245,249)"/>
<path d="M0 0 C0.8971875 0.309375 0.8971875 0.309375 1.8125 0.625 C-0.4261565 2.8636565 -2.25320533 3.5246395 -5.1875 4.625 C-6.1775 5.12 -6.1775 5.12 -7.1875 5.625 C-5.69046729 2.17030914 -4.27938051 -0.73360809 0 0 Z " fill="#5B5ACC" transform="translate(225.1875,249.375)"/>
<path d="M0 0 C2 3 2 3 1.625 5.6875 C1.41875 6.450625 1.2125 7.21375 1 8 C0.34 8 -0.32 8 -1 8 C-2.2077558 4.37673261 -1.54311128 3.35853631 0 0 Z " fill="#EE1DCF" transform="translate(452,273)"/>
<path d="M0 0 C0.99 0 1.98 0 3 0 C2.67 1.98 2.34 3.96 2 6 C1.34 6 0.68 6 0 6 C0 5.34 0 4.68 0 4 C-0.66 3.67 -1.32 3.34 -2 3 C-1.34 2.01 -0.68 1.02 0 0 Z " fill="#256BE5" transform="translate(82,276)"/>
<path d="M0 0 C1.32 0 2.64 0 4 0 C4 0.66 4 1.32 4 2 C5.32 2.66 6.64 3.32 8 4 C8 4.66 8 5.32 8 6 C5.525 5.01 5.525 5.01 3 4 C3 3.01 3 2.02 3 1 C2.01 0.67 1.02 0.34 0 0 Z " fill="#6866B8" transform="translate(241,271)"/>
<path d="M0 0 C1.23556641 0.01740234 1.23556641 0.01740234 2.49609375 0.03515625 C3.32238281 0.04417969 4.14867187 0.05320313 5 0.0625 C5.63808594 0.07410156 6.27617187 0.08570313 6.93359375 0.09765625 C6.93359375 0.42765625 6.93359375 0.75765625 6.93359375 1.09765625 C4.29359375 1.09765625 1.65359375 1.09765625 -1.06640625 1.09765625 C-1.39640625 2.08765625 -1.72640625 3.07765625 -2.06640625 4.09765625 C-3.05640625 4.42765625 -4.04640625 4.75765625 -5.06640625 5.09765625 C-2.6606399 0.12573913 -2.6606399 0.12573913 0 0 Z " fill="#5B5EC2" transform="translate(201.06640625,232.90234375)"/>
<path d="M0 0 C0.33 1.32 0.66 2.64 1 4 C3.31 4 5.62 4 8 4 C8 4.33 8 4.66 8 5 C4.7 5 1.4 5 -2 5 C-1.34 3.35 -0.68 1.7 0 0 Z " fill="#872F95" transform="translate(108,298)"/>
<path d="M0 0 C0.33 0.99 0.66 1.98 1 3 C1.66 3.33 2.32 3.66 3 4 C2.34 4.66 1.68 5.32 1 6 C-0.32 6 -1.64 6 -3 6 C-2.67 5.01 -2.34 4.02 -2 3 C-1.34 3 -0.68 3 0 3 C0 2.01 0 1.02 0 0 Z " fill="#585DF0" transform="translate(236,263)"/>
<path d="M0 0 C2.97 0.495 2.97 0.495 6 1 C6 1.66 6 2.32 6 3 C5.01 3 4.02 3 3 3 C2.67 3.99 2.34 4.98 2 6 C1.34 4.02 0.68 2.04 0 0 Z " fill="#5C5FDE" transform="translate(196,255)"/>
<path d="M0 0 C0.66 0.33 1.32 0.66 2 1 C0 4 0 4 -3 5 C-3.33 5.66 -3.66 6.32 -4 7 C-4.66 6.67 -5.32 6.34 -6 6 C-4 4 -2 2 0 0 Z " fill="#BD2FAA" transform="translate(430,249)"/>
<path d="M0 0 C0.66 0 1.32 0 2 0 C2.33 1.98 2.66 3.96 3 6 C2.67 5.34 2.34 4.68 2 4 C0.35 4.33 -1.3 4.66 -3 5 C-2.34 4.67 -1.68 4.34 -1 4 C-0.34786708 1.97536745 -0.34786708 1.97536745 0 0 Z " fill="#7C51E5" transform="translate(107,229)"/>
<path d="M0 0 C2 1 2 1 2 1 Z " fill="#FF00FF" transform="translate(359,258)"/>
</svg>
