<svg xmlns="http://www.w3.org/2000/svg" fill="rgb(50, 89, 242)" xmlns:xlink="http://www.w3.org/1999/xlink" version="1.1" width="353.778044" height="57.67200000000001" viewBox="110 79.164 353.778044 57.67200000000001" style="width: 100%; height: 100%; z-index: 5;"><g><g fill="rgb(50, 89, 242)" transform="translate(105.392 136.11599999999999) scale(1)"><path fill-rule="nonzero" d="M18.324000-3.096000C22.572000-0.552000 27.264000 0.720000 32.400000 0.720000C38.976000 0.720000 44.856000-1.368000 50.040000-5.544000C50.808000-6.312000 51.192000-7.200000 51.192000-8.208000C51.192000-9.264000 50.892000-10.116000 50.292000-10.764000C49.692000-11.412000 48.936000-11.736000 48.024000-11.736000C47.256000-11.736000 46.464000-11.448000 45.648000-10.872000C41.424000-7.704000 37.008000-6.120000 32.400000-6.120000C28.656000-6.120000 25.212000-7.104000 22.068000-9.072000C18.924000-11.040000 16.428000-13.704000 14.580000-17.064000C12.732000-20.424000 11.808000-24.120000 11.808000-28.152000C11.808000-32.136000 12.732000-35.820000 14.580000-39.204000C16.428000-42.588000 18.924000-45.264000 22.068000-47.232000C25.212000-49.200000 28.656000-50.184000 32.400000-50.184000C35.376000-50.184000 37.800000-49.812000 39.672000-49.068000C41.544000-48.324000 43.464000-47.112000 45.432000-45.432000C46.200000-44.808000 47.040000-44.496000 47.952000-44.496000C48.864000-44.496000 49.668000-44.808000 50.364000-45.432000C51.060000-46.056000 51.408000-46.848000 51.408000-47.808000C51.408000-48.432000 51.312000-48.972000 51.120000-49.428000C50.928000-49.884000 50.544000-50.328000 49.968000-50.760000C47.232000-52.968000 44.532000-54.552000 41.868000-55.512000C39.204000-56.472000 36.048000-56.952000 32.400000-56.952000C27.264000-56.952000 22.572000-55.668000 18.324000-53.100000C14.076000-50.532000 10.728000-47.052000 8.280000-42.660000C5.832000-38.268000 4.608000-33.432000 4.608000-28.152000C4.608000-22.824000 5.832000-17.952000 8.280000-13.536000C10.728000-9.120000 14.076000-5.640000 18.324000-3.096000ZM69.187721-2.268000C72.211721-0.564000 75.643721 0.288000 79.483721 0.288000C83.323720 0.288000 86.743720-0.564000 89.743721-2.268000C92.743721-3.972000 95.083721-6.336000 96.763721-9.360000C98.443720-12.384000 99.283721-15.816000 99.283721-19.656000C99.283721-23.544000 98.431721-27.000000 96.727721-30.024000C95.023720-33.048000 92.671721-35.412000 89.671721-37.116000C86.671720-38.820000 83.275721-39.672000 79.483721-39.672000C75.643721-39.672000 72.211721-38.820000 69.187721-37.116000C66.163721-35.412000 63.811720-33.048000 62.131721-30.024000C60.451721-27.000000 59.611721-23.544000 59.611721-19.656000C59.611721-15.816000 60.451721-12.384000 62.131721-9.360000C63.811720-6.336000 66.163721-3.972000 69.187721-2.268000ZM86.071721-7.920000C84.127721-6.768000 81.931721-6.192000 79.483721-6.192000C77.035721-6.192000 74.839721-6.768000 72.895721-7.920000C70.951721-9.072000 69.427720-10.668000 68.323721-12.708000C67.219721-14.748000 66.667721-17.064000 66.667721-19.656000C66.667721-22.248000 67.219721-24.576000 68.323721-26.640000C69.427720-28.704000 70.951721-30.312000 72.895721-31.464000C74.839721-32.616000 77.035721-33.192000 79.483721-33.192000C81.931721-33.192000 84.127721-32.616000 86.071721-31.464000C88.015721-30.312000 89.527721-28.704000 90.607721-26.640000C91.687721-24.576000 92.227721-22.248000 92.227721-19.656000C92.227721-17.064000 91.687721-14.748000 90.607721-12.708000C89.527721-10.668000 88.015721-9.072000 86.071721-7.920000ZM146.079441-55.224000C145.407442-55.896000 144.519441-56.232000 143.415441-56.232000C142.359441-56.232000 141.483442-55.896000 140.787441-55.224000C140.091441-54.552000 139.743441-53.664000 139.743441-52.560000L139.743441-33.120000C138.063442-35.184000 136.023441-36.792000 133.623441-37.944000C131.223442-39.096000 128.631442-39.672000 125.847441-39.672000C122.391441-39.672000 119.259441-38.808000 116.451441-37.080000C113.643441-35.352000 111.435441-32.964000 109.827441-29.916000C108.219442-26.868000 107.415441-23.472000 107.415441-19.728000C107.415441-15.984000 108.279441-12.588000 110.007441-9.540000C111.735441-6.492000 114.123442-4.092000 117.171441-2.340000C120.219441-0.588000 123.591442 0.288000 127.287441 0.288000C130.983441 0.288000 134.331441-0.588000 137.331441-2.340000C140.331442-4.092000 142.707442-6.492000 144.459441-9.540000C146.211441-12.588000 147.087441-15.984000 147.087441-19.728000L147.087441-52.560000C147.087441-53.664000 146.751441-54.552000 146.079441-55.224000ZM133.803441-7.956000C131.859441-6.780000 129.687441-6.192000 127.287441-6.192000C124.887442-6.192000 122.715441-6.780000 120.771441-7.956000C118.827441-9.132000 117.291442-10.752000 116.163441-12.816000C115.035441-14.880000 114.471441-17.184000 114.471441-19.728000C114.471441-22.272000 115.035441-24.564000 116.163441-26.604000C117.291442-28.644000 118.827441-30.252000 120.771441-31.428000C122.715441-32.604000 124.887442-33.192000 127.287441-33.192000C129.687441-33.192000 131.859441-32.604000 133.803441-31.428000C135.747441-30.252000 137.271442-28.644000 138.375441-26.604000C139.479441-24.564000 140.031441-22.272000 140.031441-19.728000C140.031441-17.184000 139.479441-14.880000 138.375441-12.816000C137.271442-10.752000 135.747441-9.132000 133.803441-7.956000ZM193.667162-18.036000C194.291162-18.636000 194.603162-19.392000 194.603162-20.304000C194.603162-24.096000 193.883162-27.456000 192.443162-30.384000C191.003162-33.312000 188.939161-35.592000 186.251162-37.224000C183.563162-38.856000 180.371161-39.672000 176.675162-39.672000C172.931162-39.672000 169.583162-38.820000 166.631162-37.116000C163.679162-35.412000 161.375162-33.036000 159.719162-29.988000C158.063162-26.940000 157.235162-23.496000 157.235162-19.656000C157.235162-15.816000 158.111162-12.384000 159.863162-9.360000C161.615161-6.336000 164.051162-3.972000 167.171162-2.268000C170.291161-0.564000 173.819161 0.288000 177.755162 0.288000C179.963162 0.288000 182.279161-0.120000 184.703162-0.936000C187.127162-1.752000 189.155161-2.808000 190.787162-4.104000C191.555162-4.680000 191.939162-5.400000 191.939162-6.264000C191.939162-7.176000 191.507162-7.992000 190.643162-8.712000C190.115162-9.192000 189.395162-9.432000 188.483162-9.432000C187.571161-9.432000 186.779161-9.168000 186.107162-8.640000C185.099162-7.872000 183.815162-7.224000 182.255162-6.696000C180.695161-6.168000 179.195162-5.904000 177.755162-5.904000C174.107161-5.904000 171.023162-6.936000 168.503162-9.000000C165.983162-11.064000 164.459161-13.776000 163.931162-17.136000L191.291162-17.136000C192.251161-17.136000 193.043161-17.436000 193.667162-18.036000ZM168.143162-30.600000C170.327161-32.520000 173.171161-33.480000 176.675162-33.480000C179.843162-33.480000 182.411162-32.520000 184.379162-30.600000C186.347161-28.680000 187.547162-26.112000 187.979162-22.896000L164.003162-22.896000C164.579162-26.112000 165.959162-28.680000 168.143162-30.600000ZM204.930882-1.044000C205.626883-0.348000 206.502882 0 207.558882 0C208.662882 0 209.550883-0.348000 210.222882-1.044000C210.894882-1.740000 211.230882-2.616000 211.230882-3.672000L211.230882-35.712000C211.230882-36.816000 210.894882-37.704000 210.222882-38.376000C209.550883-39.048000 208.662882-39.384000 207.558882-39.384000C206.502882-39.384000 205.626883-39.048000 204.930882-38.376000C204.234882-37.704000 203.886882-36.816000 203.886882-35.712000L203.886882-3.672000C203.886882-2.616000 204.234882-1.740000 204.930882-1.044000ZM204.210882-47.196000C205.146882-46.260000 206.262882-45.792000 207.558882-45.792000C208.854882-45.792000 209.970882-46.260000 210.906882-47.196000C211.842882-48.132000 212.310882-49.248000 212.310882-50.544000C212.310882-51.840000 211.842882-52.956000 210.906882-53.892000C209.970882-54.828000 208.854882-55.296000 207.558882-55.296000C206.262882-55.296000 205.146882-54.828000 204.210882-53.892000C203.274882-52.956000 202.806882-51.840000 202.806882-50.544000C202.806882-49.248000 203.274882-48.132000 204.210882-47.196000ZM252.626603-37.584000C249.986603-39.024000 247.010603-39.744000 243.698603-39.744000C241.298603-39.744000 239.042603-39.324000 236.930603-38.484000C234.818603-37.644000 232.994603-36.456000 231.458603-34.920000L231.458603-35.712000C231.458603-36.816000 231.122603-37.704000 230.450603-38.376000C229.778603-39.048000 228.890603-39.384000 227.786603-39.384000C226.730603-39.384000 225.854603-39.048000 225.158603-38.376000C224.462603-37.704000 224.114603-36.816000 224.114603-35.712000L224.114603-3.600000C224.114603-2.544000 224.462603-1.668000 225.158603-0.972000C225.854603-0.276000 226.730603 0.072000 227.786603 0.072000C228.890603 0.072000 229.778603-0.276000 230.450603-0.972000C231.122603-1.668000 231.458603-2.544000 231.458603-3.600000L231.458603-23.904000C231.458603-25.632000 231.926603-27.192000 232.862603-28.584000C233.798603-29.976000 235.094603-31.080000 236.750603-31.896000C238.406603-32.712000 240.242603-33.120000 242.258603-33.120000C245.714603-33.120000 248.486603-32.124000 250.574603-30.132000C252.662603-28.140000 253.706603-25.200000 253.706603-21.312000L253.706603-3.600000C253.706603-2.544000 254.054603-1.668000 254.750603-0.972000C255.446603-0.276000 256.322603 0.072000 257.378603 0.072000C258.434603 0.072000 259.310603-0.276000 260.006603-0.972000C260.702603-1.668000 261.050603-2.544000 261.050603-3.600000L261.050603-21.312000C261.050603-25.200000 260.306603-28.524000 258.818603-31.284000C257.330603-34.044000 255.266603-36.144000 252.626603-37.584000ZM309.070324-55.224000C308.398324-55.896000 307.510323-56.232000 306.406324-56.232000C305.350323-56.232000 304.474324-55.896000 303.778324-55.224000C303.082323-54.552000 302.734324-53.664000 302.734324-52.560000L302.734324-33.120000C301.054324-35.184000 299.014323-36.792000 296.614324-37.944000C294.214324-39.096000 291.622324-39.672000 288.838324-39.672000C285.382324-39.672000 282.250324-38.808000 279.442324-37.080000C276.634324-35.352000 274.426323-32.964000 272.818324-29.916000C271.210324-26.868000 270.406324-23.472000 270.406324-19.728000C270.406324-15.984000 271.270324-12.588000 272.998324-9.540000C274.726324-6.492000 277.114324-4.092000 280.162324-2.340000C283.210323-0.588000 286.582324 0.288000 290.278324 0.288000C293.974323 0.288000 297.322323-0.588000 300.322324-2.340000C303.322324-4.092000 305.698324-6.492000 307.450324-9.540000C309.202323-12.588000 310.078324-15.984000 310.078324-19.728000L310.078324-52.560000C310.078324-53.664000 309.742323-54.552000 309.070324-55.224000ZM296.794324-7.956000C294.850324-6.780000 292.678323-6.192000 290.278324-6.192000C287.878324-6.192000 285.706324-6.780000 283.762324-7.956000C281.818324-9.132000 280.282324-10.752000 279.154324-12.816000C278.026323-14.880000 277.462324-17.184000 277.462324-19.728000C277.462324-22.272000 278.026323-24.564000 279.154324-26.604000C280.282324-28.644000 281.818324-30.252000 283.762324-31.428000C285.706324-32.604000 287.878324-33.192000 290.278324-33.192000C292.678323-33.192000 294.850324-32.604000 296.794324-31.428000C298.738324-30.252000 300.262324-28.644000 301.366324-26.604000C302.470323-24.564000 303.022324-22.272000 303.022324-19.728000C303.022324-17.184000 302.470323-14.880000 301.366324-12.816000C300.262324-10.752000 298.738324-9.132000 296.794324-7.956000ZM357.378044-38.448000C356.706045-39.120000 355.818044-39.456000 354.714044-39.456000C353.658044-39.456000 352.782045-39.120000 352.086044-38.448000C351.390044-37.776000 351.042044-36.888000 351.042044-35.784000L351.042044-15.480000C351.042044-13.752000 350.574044-12.192000 349.638044-10.800000C348.702044-9.408000 347.406044-8.304000 345.750044-7.488000C344.094044-6.672000 342.258044-6.264000 340.242044-6.264000C336.786044-6.264000 334.014044-7.260000 331.926044-9.252000C329.838044-11.244000 328.794044-14.184000 328.794044-18.072000L328.794044-35.784000C328.794044-36.840000 328.446045-37.716000 327.750044-38.412000C327.054044-39.108000 326.178045-39.456000 325.122044-39.456000C324.066044-39.456000 323.190045-39.108000 322.494044-38.412000C321.798044-37.716000 321.450044-36.840000 321.450044-35.784000L321.450044-18.072000C321.450044-14.184000 322.194044-10.860000 323.682044-8.100000C325.170045-5.340000 327.234044-3.240000 329.874044-1.800000C332.514045-0.360000 335.490044 0.360000 338.802044 0.360000C341.202044 0.360000 343.458045-0.060000 345.570044-0.900000C347.682044-1.740000 349.506045-2.928000 351.042044-4.464000L351.042044-3.672000C351.042044-2.616000 351.390044-1.740000 352.086044-1.044000C352.782045-0.348000 353.658044 0 354.714044 0C355.818044 0 356.706045-0.348000 357.378044-1.044000C358.050044-1.740000 358.386044-2.616000 358.386044-3.672000L358.386044-35.784000C358.386044-36.888000 358.050044-37.776000 357.378044-38.448000Z"></path></g></g></svg>